<svg width="21" height="20" viewBox="0 0 21 20" fill="none" xmlns="http://www.w3.org/2000/svg">
<g clip-path="url(#clip0_10033_160)">
<path d="M4.34886 0.556444L2.27245 2.42902C1.88731 2.77546 1.85615 3.36861 2.20286 3.75351C2.54965 4.13829 3.14276 4.1689 3.52732 3.82178L5.60373 1.94437C5.9885 1.59757 6.01911 1.00443 5.67209 0.619882C5.23139 0.179166 4.65078 0.279972 4.34886 0.556444ZM15.7905 0.620026C15.4438 1.0049 15.475 1.59807 15.8601 1.94451L17.9353 3.82192C18.3199 4.16895 18.913 4.13834 19.2598 3.75365C19.6065 3.36875 19.5753 2.77561 19.1902 2.42917L17.115 0.556588C16.8448 0.312454 16.2704 0.14005 15.7905 0.620026ZM10.7331 1.32678C5.90096 1.32678 1.96361 5.26534 1.96361 10.0975C1.96361 12.6095 3.03378 14.8733 4.7346 16.4745L3.46263 18.1945C3.15602 18.6109 3.24451 19.1969 3.6604 19.5043C4.07703 19.8117 4.66402 19.7233 4.97143 19.3066L6.22754 17.6049C7.54703 18.4006 9.0848 18.8684 10.7332 18.8684C12.3911 18.8684 13.9381 18.3958 15.262 17.5915L16.5327 19.3066C16.8401 19.7233 17.4271 19.8117 17.8437 19.5043C18.2596 19.1969 18.3481 18.6109 18.0415 18.1945L16.7549 16.4525C18.4406 14.8526 19.5003 12.5977 19.5003 10.0975C19.5003 5.26534 15.5653 1.32678 10.7331 1.32678ZM10.7331 3.20426C14.552 3.20426 17.6264 6.27868 17.6264 10.0975C17.6264 13.9164 14.552 16.9897 10.7331 16.9897C6.91429 16.9897 3.83617 13.9164 3.83617 10.0975C3.83617 6.27868 6.91429 3.20426 10.7331 3.20426ZM10.7527 5.51377C10.2335 5.51377 9.81322 5.93577 9.81525 6.45496V9.6632H7.95123C7.43251 9.66119 7.01074 10.0807 7.01007 10.5995C7.00801 11.1201 7.4306 11.5426 7.95123 11.5406H10.7527C11.3697 11.5382 11.6905 11.0683 11.689 10.5995V6.45496C11.691 5.93625 11.2715 5.51446 10.7527 5.51377Z" fill="white"/>
</g>
<defs>
<clipPath id="clip0_10033_160">
<rect width="20" height="20" fill="white" transform="translate(0.75 -9.15527e-05)"/>
</clipPath>
</defs>
</svg>
