<svg width="16" height="15" viewBox="0 0 16 15" fill="none" xmlns="http://www.w3.org/2000/svg">
<path fill-rule="evenodd" clip-rule="evenodd" d="M5.93455 1.23472C6.36005 0.470611 7.14963 -0.000587463 8.00488 -0.000587463C8.86013 -0.000587463 9.64971 0.470611 10.0752 1.23472C11.728 4.20349 14.0318 8.34115 15.6791 11.3002C16.1029 12.0611 16.1009 12.9967 15.6742 13.7556C15.2472 14.5147 14.4603 14.9819 13.6088 14.9819H2.40093C1.54943 14.9819 0.762597 14.5147 0.335597 13.7556C-0.0911539 12.9967 -0.0931413 12.0611 0.330613 11.3002C1.97794 8.34115 4.28173 4.20349 5.93455 1.23472ZM9.37851 1.91517C9.0956 1.41326 8.57346 1.09938 8.00488 1.09938C7.43629 1.09938 6.91416 1.41326 6.63124 1.91517L1.22881 11.5017C0.939896 12.0146 0.941389 12.6451 1.2323 13.1565C1.51597 13.6549 2.03661 13.9661 2.60245 13.9661H13.4073C13.9731 13.9661 14.4938 13.6549 14.7775 13.1565C15.0684 12.6451 15.0699 12.0146 14.7809 11.5017L9.37851 1.91517ZM8.94352 2.16038L14.3457 11.7469C14.5487 12.1072 14.5477 12.5502 14.3432 12.9096C14.1492 13.2507 13.7946 13.4667 13.4073 13.4667H2.60245C2.21515 13.4667 1.86057 13.2507 1.66654 12.9096C1.46203 12.5502 1.46103 12.1072 1.66404 11.7469L7.06623 2.16038C7.26001 1.81679 7.61583 1.59879 8.00488 1.59879C8.39392 1.59879 8.74975 1.81679 8.94352 2.16038ZM8.00488 11.1114C8.41839 11.1114 8.754 11.447 8.754 11.8605C8.754 12.2741 8.41839 12.6097 8.00488 12.6097C7.59136 12.6097 7.25575 12.2741 7.25575 11.8605C7.25575 11.447 7.59136 11.1114 8.00488 11.1114ZM8.72154 5.11767C8.73003 4.92215 8.65837 4.73188 8.52302 4.59054C8.38768 4.44921 8.20065 4.3693 8.00488 4.3693C7.80911 4.3693 7.62207 4.44921 7.48673 4.59054C7.35139 4.73188 7.27973 4.92215 7.28822 5.11767C7.34016 6.30853 7.4398 8.6031 7.48374 9.61391C7.49598 9.89284 7.72546 10.1126 8.00463 10.1126H8.00512C8.2843 10.1126 8.51378 9.89284 8.52601 9.61391C8.56996 8.6031 8.6696 6.30853 8.72154 5.11767Z" fill="#FFDD00"/>
</svg>
