<svg width="21" height="20" viewBox="0 0 21 20" fill="none" xmlns="http://www.w3.org/2000/svg">
<path fill-rule="evenodd" clip-rule="evenodd" d="M8.69448 1.11102C7.87629 1.11102 7.213 1.7743 7.213 2.5925V4.07399H2.76855V5.55547H4.25004V15.9258C4.25004 17.5623 5.5766 18.8888 7.213 18.8888H14.9908C16.4226 18.8888 17.5834 17.7281 17.5834 16.2962V5.55547H19.0648V4.07399H14.6204V2.5925C14.6204 1.7743 13.9571 1.11102 13.1389 1.11102H8.69448ZM16.1019 5.55547H5.73152V15.9258C5.73152 16.7441 6.39481 17.4073 7.213 17.4073H14.9908C15.6044 17.4073 16.1019 16.9098 16.1019 16.2962V5.55547ZM13.1389 4.07399H8.69448V3.33325C8.69448 2.92415 9.02612 2.5925 9.43522 2.5925H12.3982C12.8073 2.5925 13.1389 2.92415 13.1389 3.33325V4.07399Z" fill="white"/>
</svg>
