<svg width="10" height="10" viewBox="0 0 10 10" fill="none" xmlns="http://www.w3.org/2000/svg">
<path d="M9.20015 0.806667C9.13847 0.744865 9.06521 0.695833 8.98456 0.662379C8.90392 0.628924 8.81746 0.611704 8.73015 0.611704C8.64284 0.611704 8.55638 0.628924 8.47573 0.662379C8.39508 0.695833 8.32182 0.744865 8.26015 0.806667L5.00015 4.06L1.74015 0.8C1.67843 0.738279 1.60515 0.689319 1.52451 0.655916C1.44387 0.622512 1.35744 0.60532 1.27015 0.60532C1.18286 0.60532 1.09643 0.622512 1.01579 0.655916C0.935144 0.689319 0.86187 0.738279 0.800149 0.8C0.738428 0.861721 0.689468 0.934995 0.656064 1.01564C0.622661 1.09628 0.605469 1.18271 0.605469 1.27C0.605469 1.35729 0.622661 1.44372 0.656064 1.52436C0.689468 1.60501 0.738428 1.67828 0.800149 1.74L4.06015 5L0.800149 8.26C0.738428 8.32172 0.689468 8.395 0.656064 8.47564C0.622661 8.55628 0.605469 8.64271 0.605469 8.73C0.605469 8.81729 0.622661 8.90372 0.656064 8.98436C0.689468 9.06501 0.738428 9.13828 0.800149 9.2C0.86187 9.26172 0.935144 9.31068 1.01579 9.34408C1.09643 9.37749 1.18286 9.39468 1.27015 9.39468C1.35744 9.39468 1.44387 9.37749 1.52451 9.34408C1.60515 9.31068 1.67843 9.26172 1.74015 9.2L5.00015 5.94L8.26015 9.2C8.32187 9.26172 8.39514 9.31068 8.47579 9.34408C8.55643 9.37749 8.64286 9.39468 8.73015 9.39468C8.81744 9.39468 8.90387 9.37749 8.98451 9.34408C9.06515 9.31068 9.13843 9.26172 9.20015 9.2C9.26187 9.13828 9.31083 9.06501 9.34423 8.98436C9.37764 8.90372 9.39483 8.81729 9.39483 8.73C9.39483 8.64271 9.37764 8.55628 9.34423 8.47564C9.31083 8.395 9.26187 8.32172 9.20015 8.26L5.94015 5L9.20015 1.74C9.45348 1.48667 9.45348 1.06 9.20015 0.806667Z" fill="white"/>
</svg>
