<svg width="16" height="16" viewBox="0 0 16 16" fill="none" xmlns="http://www.w3.org/2000/svg">
<path fill-rule="evenodd" clip-rule="evenodd" d="M6.15023 0C5.41385 0 4.81689 0.596953 4.81689 1.33333V2.66667H0.816895V4H2.15023V13.3333C2.15023 14.8061 3.34413 16 4.81689 16H11.8169C13.1056 16 14.1502 14.9553 14.1502 13.6667V4H15.4836V2.66667H11.4836V1.33333C11.4836 0.596953 10.8866 0 10.1502 0H6.15023ZM12.8169 4H3.48356V13.3333C3.48356 14.0697 4.08052 14.6667 4.81689 14.6667H11.8169C12.3692 14.6667 12.8169 14.2189 12.8169 13.6667V4ZM10.1502 2.66667H6.15023V2C6.15023 1.63181 6.44871 1.33333 6.81689 1.33333H9.48356C9.85175 1.33333 10.1502 1.63181 10.1502 2V2.66667Z" fill="#CF0122"/>
</svg>
