<svg width="18" height="18" viewBox="0 0 18 18" fill="none" xmlns="http://www.w3.org/2000/svg">
<path fill-rule="evenodd" clip-rule="evenodd" d="M6.69448 0.111084C5.87629 0.111084 5.213 0.774365 5.213 1.59257V3.07405H0.768555V4.55553H2.25004V14.9259C2.25004 16.5623 3.5766 17.8889 5.213 17.8889H12.9908C14.4226 17.8889 15.5834 16.7281 15.5834 15.2963V4.55553H17.0648V3.07405H12.6204V1.59257C12.6204 0.774365 11.9571 0.111084 11.1389 0.111084H6.69448ZM14.1019 4.55553H3.73152V14.9259C3.73152 15.7441 4.39481 16.4074 5.213 16.4074H12.9908C13.6044 16.4074 14.1019 15.9099 14.1019 15.2963V4.55553ZM11.1389 3.07405H6.69448V2.33331C6.69448 1.92421 7.02612 1.59257 7.43522 1.59257H10.3982C10.8073 1.59257 11.1389 1.92421 11.1389 2.33331V3.07405Z" fill="white"/>
</svg>
