<svg width="8" height="12" viewBox="0 0 8 12" fill="none" xmlns="http://www.w3.org/2000/svg">
<path d="M6.66667 9.33333C7.02029 9.33333 7.35943 9.47381 7.60948 9.72386C7.85952 9.97391 8 10.313 8 10.6667C8 11.0203 7.85952 11.3594 7.60948 11.6095C7.35943 11.8595 7.02029 12 6.66667 12C6.31305 12 5.97391 11.8595 5.72386 11.6095C5.47381 11.3594 5.33333 11.0203 5.33333 10.6667C5.33333 10.313 5.47381 9.97391 5.72386 9.72386C5.97391 9.47381 6.31305 9.33333 6.66667 9.33333ZM1.33333 9.33333C1.68696 9.33333 2.02609 9.47381 2.27614 9.72386C2.52619 9.97391 2.66667 10.313 2.66667 10.6667C2.66667 11.0203 2.52619 11.3594 2.27614 11.6095C2.02609 11.8595 1.68696 12 1.33333 12C0.979711 12 0.640573 11.8595 0.390524 11.6095C0.140476 11.3594 0 11.0203 0 10.6667C0 10.313 0.140476 9.97391 0.390524 9.72386C0.640573 9.47381 0.979711 9.33333 1.33333 9.33333ZM6.66667 4.66667C7.02029 4.66667 7.35943 4.80714 7.60948 5.05719C7.85952 5.30724 8 5.64638 8 6C8 6.35362 7.85952 6.69276 7.60948 6.94281C7.35943 7.19286 7.02029 7.33333 6.66667 7.33333C6.31305 7.33333 5.97391 7.19286 5.72386 6.94281C5.47381 6.69276 5.33333 6.35362 5.33333 6C5.33333 5.64638 5.47381 5.30724 5.72386 5.05719C5.97391 4.80714 6.31305 4.66667 6.66667 4.66667ZM1.33333 4.66667C1.68696 4.66667 2.02609 4.80714 2.27614 5.05719C2.52619 5.30724 2.66667 5.64638 2.66667 6C2.66667 6.35362 2.52619 6.69276 2.27614 6.94281C2.02609 7.19286 1.68696 7.33333 1.33333 7.33333C0.979711 7.33333 0.640573 7.19286 0.390524 6.94281C0.140476 6.69276 0 6.35362 0 6C0 5.64638 0.140476 5.30724 0.390524 5.05719C0.640573 4.80714 0.979711 4.66667 1.33333 4.66667ZM6.66667 0C7.02029 0 7.35943 0.140476 7.60948 0.390524C7.85952 0.640573 8 0.979711 8 1.33333C8 1.68696 7.85952 2.02609 7.60948 2.27614C7.35943 2.52619 7.02029 2.66667 6.66667 2.66667C6.31305 2.66667 5.97391 2.52619 5.72386 2.27614C5.47381 2.02609 5.33333 1.68696 5.33333 1.33333C5.33333 0.979711 5.47381 0.640573 5.72386 0.390524C5.97391 0.140476 6.31305 0 6.66667 0ZM1.33333 0C1.68696 0 2.02609 0.140476 2.27614 0.390524C2.52619 0.640573 2.66667 0.979711 2.66667 1.33333C2.66667 1.68696 2.52619 2.02609 2.27614 2.27614C2.02609 2.52619 1.68696 2.66667 1.33333 2.66667C0.979711 2.66667 0.640573 2.52619 0.390524 2.27614C0.140476 2.02609 0 1.68696 0 1.33333C0 0.979711 0.140476 0.640573 0.390524 0.390524C0.640573 0.140476 0.979711 0 1.33333 0Z" fill="white"/>
</svg>
