<svg width="18" height="18" viewBox="0 0 18 18" fill="none" xmlns="http://www.w3.org/2000/svg">
<path d="M9.10997 11.8367C9.47811 11.8367 9.84265 11.7642 10.1828 11.6233C10.5229 11.4824 10.8319 11.2759 11.0922 11.0156C11.3525 10.7553 11.559 10.4463 11.6999 10.1062C11.8408 9.76605 11.9133 9.40151 11.9133 9.03338C11.9133 8.66524 11.8408 8.3007 11.6999 7.96059C11.559 7.62047 11.3525 7.31143 11.0922 7.05112C10.8319 6.79081 10.5229 6.58431 10.1828 6.44343C9.84265 6.30255 9.47811 6.23004 9.10997 6.23004C8.36648 6.23004 7.65345 6.52539 7.12772 7.05112C6.60199 7.57685 6.30664 8.28988 6.30664 9.03338C6.30664 9.77687 6.60199 10.4899 7.12772 11.0156C7.65345 11.5414 8.36648 11.8367 9.10997 11.8367Z" stroke="white" stroke-width="1.5" stroke-linecap="round" stroke-linejoin="round"/>
<path d="M16.4858 11.5784C16.1557 12.5278 15.6458 13.4049 14.9842 14.1617L13.2142 13.76C12.5429 14.3621 11.7453 14.8063 10.88 15.06L10.4017 16.7925C9.9533 16.8729 9.49883 16.9145 9.04333 16.9167C8.47343 16.9173 7.90532 16.853 7.34999 16.725L6.84249 14.9367C6.08615 14.6579 5.39087 14.2354 4.79499 13.6925L3.04499 14.1425C2.35097 13.3315 1.83003 12.3872 1.51416 11.3675L2.80583 9.93252C2.68794 9.19865 2.70744 8.44927 2.86333 7.72252L1.58916 6.39335C1.95955 5.35077 2.5466 4.39848 3.31166 3.59919L5.11999 4.04919C5.61793 3.64994 6.17265 3.32723 6.76583 3.09169L7.24416 1.32169C7.83496 1.16869 8.44223 1.08837 9.05249 1.08252C9.53999 1.08252 10.0275 1.12752 10.5067 1.21585L10.9658 2.97669C11.6575 3.20085 12.3058 3.54335 12.8792 3.99085L14.6975 3.52169C15.4311 4.26105 16.0099 5.13929 16.4 6.10502L15.1667 7.44419C15.4006 8.36188 15.4199 9.32112 15.2233 10.2475L16.4858 11.5784Z" stroke="white" stroke-width="1.5" stroke-linecap="round" stroke-linejoin="round"/>
</svg>
