<svg width="14" height="14" viewBox="0 0 14 14" fill="none" xmlns="http://www.w3.org/2000/svg">
<path d="M13.3002 0.709995C13.2077 0.617291 13.0978 0.543744 12.9768 0.493562C12.8559 0.443381 12.7262 0.417551 12.5952 0.417551C12.4643 0.417551 12.3346 0.443381 12.2136 0.493562C12.0926 0.543744 11.9827 0.617291 11.8902 0.709995L7.00022 5.58999L2.11022 0.699995C2.01764 0.607413 1.90773 0.533973 1.78677 0.483868C1.6658 0.433763 1.53615 0.407974 1.40522 0.407974C1.27429 0.407974 1.14464 0.433763 1.02368 0.483868C0.902716 0.533973 0.792805 0.607413 0.700223 0.699995C0.607642 0.792576 0.534202 0.902487 0.484097 1.02345C0.433992 1.14442 0.408203 1.27406 0.408203 1.40499C0.408203 1.53593 0.433992 1.66557 0.484097 1.78654C0.534202 1.9075 0.607642 2.01741 0.700223 2.10999L5.59022 6.99999L0.700223 11.89C0.607642 11.9826 0.534202 12.0925 0.484097 12.2135C0.433992 12.3344 0.408203 12.4641 0.408203 12.595C0.408203 12.7259 0.433992 12.8556 0.484097 12.9765C0.534202 13.0975 0.607642 13.2074 0.700223 13.3C0.792805 13.3926 0.902716 13.466 1.02368 13.5161C1.14464 13.5662 1.27429 13.592 1.40522 13.592C1.53615 13.592 1.6658 13.5662 1.78677 13.5161C1.90773 13.466 2.01764 13.3926 2.11022 13.3L7.00022 8.40999L11.8902 13.3C11.9828 13.3926 12.0927 13.466 12.2137 13.5161C12.3346 13.5662 12.4643 13.592 12.5952 13.592C12.7262 13.592 12.8558 13.5662 12.9768 13.5161C13.0977 13.466 13.2076 13.3926 13.3002 13.3C13.3928 13.2074 13.4662 13.0975 13.5163 12.9765C13.5665 12.8556 13.5922 12.7259 13.5922 12.595C13.5922 12.4641 13.5665 12.3344 13.5163 12.2135C13.4662 12.0925 13.3928 11.9826 13.3002 11.89L8.41022 6.99999L13.3002 2.10999C13.6802 1.72999 13.6802 1.08999 13.3002 0.709995Z" fill="white"/>
</svg>
