<svg width="16" height="13" viewBox="0 0 16 13" fill="none" xmlns="http://www.w3.org/2000/svg">
<path d="M0 6.18389V1.39629C0 0.946101 0.548383 0.725225 0.860417 1.04974L5.7971 6.18389L0.860417 11.318C0.548383 11.6426 0 11.4217 0 10.9715V6.18389Z" fill="#CF0122"/>
<path d="M5.10156 6.18389V1.39629C5.10156 0.946101 5.64995 0.725225 5.96198 1.04974L10.8987 6.18389L5.96198 11.318C5.64995 11.6426 5.10156 11.4217 5.10156 10.9715V6.18389Z" fill="#CF0122"/>
<path d="M10.2031 6.18389V1.39629C10.2031 0.946101 10.7515 0.725225 11.0635 1.04974L16.0002 6.18389L11.0635 11.318C10.7515 11.6426 10.2031 11.4217 10.2031 10.9715V6.18389Z" fill="#CF0122"/>
</svg>
