<svg width="24" height="17" viewBox="0 0 24 17" fill="none" xmlns="http://www.w3.org/2000/svg">
<path d="M18.314 7.22574C18.314 6.68719 18.314 6.15861 18.314 5.63004H23.5C23.5 6.15861 23.5 6.68719 23.5 7.22574H21.7946V12.6112C21.2062 12.6112 20.6177 12.6112 20.0293 12.6112V7.22574H18.314Z" fill="white"/>
<path d="M12.5347 12.6113C12.5347 10.2894 12.5347 7.96192 12.5347 5.63007C13.5392 5.63007 14.5736 5.63007 15.598 5.63007C18.9298 5.64001 18.9298 10.8219 15.598 10.8219H14.315V12.6113C13.7182 12.6113 13.1215 12.6113 12.5347 12.6113ZM15.588 7.22448C15.1703 7.21453 14.7228 7.22448 14.315 7.22448C14.315 7.7925 14.315 8.64951 14.315 9.21754H15.588C16.5627 9.21754 16.6224 7.23447 15.588 7.22448Z" fill="white"/>
<path d="M19.4894 13.297C19.6143 15.2816 18.189 16.2852 16.2279 16.2852C14.4794 16.2852 12.2103 15.5577 9.83827 14.2364C5.43023 11.7816 2.03429 8.01993 1.09318 5.20427C0.66207 3.9119 0.736106 2.81839 1.30787 2.04314C2.21261 0.816175 4.08516 0.753404 5.58618 1.05366C-1.2019 -0.350796 -1.42336 6.00435 6.30227 12.162C12.7047 17.2995 19.9779 18.006 19.4894 13.297Z" fill="white"/>
<path d="M12.1405 5.6301H10.3702L9.48501 8.26088L9.1767 9.44675H9.14683L7.96329 5.73971C7.68483 5.73971 7.48592 5.73971 7.20743 5.73971L6.21484 8.90177C6.58595 9.28794 6.96429 9.64755 7.3362 9.97843L7.55554 9.31719H7.58537L7.99031 10.538C8.3992 10.8744 8.78902 11.1716 9.13904 11.4252C9.41297 11.6234 9.68914 11.8134 9.96621 11.9956L12.1405 5.89914L12.1405 5.6301Z" fill="white"/>
<path d="M4.63477 10.3987L5.43472 12.6113H6.46273L6.61841 12.1419C5.91758 11.591 5.25189 11.0064 4.63477 10.3987Z" fill="white"/>
<path d="M5.73775 8.38506L5.70546 8.26085L4.81033 5.63007H3.84473C4.0634 6.09774 4.35918 6.59903 4.72999 7.12176C5.04459 7.56534 5.38491 7.98702 5.73775 8.38506Z" fill="white"/>
<path d="M18.6862 14.9069C16.6445 17.676 8.39923 14.2671 3.72581 8.7817C1.5229 6.1974 0.605897 3.66006 1.62499 2.2777C3.10806 0.266702 8.12946 1.46294 12.8411 4.95068C12.9809 5.05385 13.1184 5.15832 13.2547 5.26369C9.02412 2.15655 4.57841 1.04065 3.30083 2.77332C2.56566 3.77025 3.03795 5.49415 4.37294 7.37608C5.55492 9.04256 7.21442 10.5724 8.88217 11.7809C14.0921 15.5502 19.2147 16.0985 19.0398 12.8616C19.1839 13.6725 19.0783 14.3753 18.6862 14.9069Z" fill="white"/>
</svg>
