<svg width="24" height="16" viewBox="0 0 24 16" fill="none" xmlns="http://www.w3.org/2000/svg">
<path d="M19.5197 8.07052V11.354C18.9279 11.354 18.3361 11.354 17.7539 11.354V4.64389H18.3743L21.7532 7.94643V4.64389C22.3355 4.64389 22.9177 4.64389 23.5 4.64389V11.354H22.8891L19.5197 8.07052Z" fill="white"/>
<path d="M12.0674 11.3541C12.0674 9.12236 12.0674 6.88527 12.0674 4.64394C13.0329 4.64394 14.0271 4.64394 15.0118 4.64394C18.2143 4.6535 18.2143 9.63425 15.0118 9.63425H13.7786V11.3541C13.205 11.3541 12.6314 11.3541 12.0674 11.3541ZM15.0022 6.17646C14.6007 6.1669 14.1705 6.17646 13.7786 6.17646C13.7786 6.72242 13.7786 7.54616 13.7786 8.09214H15.0022C15.9391 8.09214 15.9964 6.18606 15.0022 6.17646Z" fill="white"/>
<path d="M18.7522 12.0132C18.8722 13.9208 17.5023 14.8854 15.6174 14.8854C13.9367 14.8854 11.7557 14.1862 9.47576 12.9162C5.23884 10.5566 1.97473 6.94101 1.07016 4.23465C0.655781 2.99245 0.72695 1.94139 1.27651 1.19623C2.14612 0.0169047 3.94599 -0.0434298 5.38874 0.24517C-1.13583 -1.10476 -1.3487 5.00368 6.07702 10.9223C12.2309 15.8603 19.2218 16.5394 18.7522 12.0132Z" fill="white"/>
<path d="M11.6888 4.64392H9.98719L9.13639 7.17258L8.84004 8.31241H8.81134L7.67373 4.74929C7.40609 4.74929 7.21489 4.74929 6.94722 4.74929L5.99316 7.7886C6.34987 8.15978 6.71351 8.50542 7.07099 8.82346L7.28182 8.18788H7.31048L7.69971 9.36131C8.09273 9.68465 8.46742 9.97028 8.80385 10.2141C9.06715 10.4046 9.3326 10.5872 9.59891 10.7623L11.6888 4.90252L11.6888 4.64392Z" fill="white"/>
<path d="M4.47412 9.2274L5.24302 11.3541H6.23113L6.38076 10.903C5.70713 10.3735 5.06728 9.81154 4.47412 9.2274Z" fill="white"/>
<path d="M5.53488 7.29198L5.50384 7.17259L4.64346 4.64394H3.71533C3.92551 5.09345 4.20981 5.57529 4.56623 6.07772C4.86863 6.50408 5.19573 6.90939 5.53488 7.29198Z" fill="white"/>
<path d="M17.9804 13.5606C16.0179 16.2222 8.0928 12.9456 3.6008 7.6732C1.4834 5.18922 0.602003 2.75038 1.58153 1.42168C3.00703 -0.51125 7.8335 0.638547 12.3622 3.9909C12.4966 4.09006 12.6288 4.19048 12.7598 4.29175C8.69342 1.30523 4.4203 0.232653 3.19232 1.89806C2.48569 2.85629 2.93965 4.51327 4.22281 6.32214C5.35891 7.92392 6.95398 9.39434 8.55699 10.5559C13.5647 14.1789 18.4884 14.7059 18.3203 11.5948C18.4588 12.3741 18.3573 13.0496 17.9804 13.5606Z" fill="white"/>
</svg>
