<svg width="21" height="20" viewBox="0 0 21 20" fill="none" xmlns="http://www.w3.org/2000/svg">
<g clip-path="url(#clip0_10033_156)">
<path d="M4.57925 2.90435C4.44758 2.96881 4.12441 3.17513 4.12441 3.63272V16.3669C4.12441 16.8248 4.44768 17.0308 4.57895 17.0954L4.5798 17.0958C4.71035 17.1591 5.07155 17.2885 5.43373 17.0065L5.43375 17.0065L13.6083 10.6398L13.6084 10.6397C13.88 10.4278 13.9208 10.1458 13.9201 9.99929C13.9201 9.85408 13.8802 9.57213 13.6083 9.36033L13.5161 9.47867L13.6083 9.36033L5.43375 2.99311L5.43358 2.99297C5.26562 2.86254 5.09357 2.81896 4.9439 2.81896C4.78141 2.81896 4.65021 2.86957 4.57925 2.90435ZM4.57925 2.90435L4.6452 3.03907L4.57917 2.90439C4.5792 2.90438 4.57922 2.90436 4.57925 2.90435ZM6.68907 18.6192L6.689 18.6192C6.17477 19.0203 5.56011 19.2249 4.93989 19.2249C4.51408 19.2249 4.08454 19.1283 3.68158 18.9317C2.69398 18.4487 2.08066 17.4665 2.08066 16.3669V3.63271C2.08066 2.53303 2.69402 1.55079 3.68221 1.06814L3.68221 1.06814C4.66981 0.585759 5.82157 0.705493 6.68964 1.38098C6.68965 1.38099 6.68967 1.38101 6.68969 1.38102L14.8636 7.7482L14.8636 7.74822C15.563 8.29285 15.9639 9.11295 15.9639 9.99937V9.99946C15.9644 10.8859 15.5635 11.7068 14.8641 12.2517L6.68907 18.6192Z" fill="white" stroke="#212344" stroke-width="0.3"/>
<path d="M19.4193 1.79678V18.203C19.4193 18.7674 18.9618 19.2249 18.3975 19.2249C17.8331 19.2249 17.3756 18.7674 17.3756 18.203V1.79678C17.3756 1.23246 17.8331 0.774908 18.3975 0.774908C18.9618 0.774908 19.4193 1.23246 19.4193 1.79678Z" fill="white" stroke="#212344" stroke-width="0.3"/>
</g>
<defs>
<clipPath id="clip0_10033_156">
<rect width="20" height="20" fill="white" transform="translate(0.75 -9.15527e-05)"/>
</clipPath>
</defs>
</svg>
