<svg width="69" height="68" viewBox="0 0 69 68" fill="none" xmlns="http://www.w3.org/2000/svg">
<mask id="mask0_10066_173" style="mask-type:luminance" maskUnits="userSpaceOnUse" x="22" y="17" width="47" height="46">
<path d="M22.7451 40.1287C22.7451 52.5266 32.8778 62.605 45.3886 62.605C57.8788 62.605 68.0322 52.5471 68.0322 40.1287C68.0322 27.7308 57.8994 17.6523 45.3886 17.6523C32.8778 17.6729 22.7451 27.7308 22.7451 40.1287Z" fill="white"/>
</mask>
<g mask="url(#mask0_10066_173)">
<path d="M88.7734 31.1997L54.3635 83.2134L1.96289 49.0576L36.3728 -2.95605L88.7734 31.1997Z" fill="url(#paint0_linear_10066_173)"/>
</g>
<path d="M53.1024 36.5369C52.6682 36.5369 52.2339 36.3932 51.8617 36.1264C51.1586 35.5927 50.8898 34.669 51.1793 33.848C51.1793 33.8274 51.2 33.8069 51.2 33.7864C51.4688 33.1296 52.0478 32.6575 52.7509 32.5548C53.454 32.4317 54.1571 32.6985 54.612 33.2322C54.9842 33.6632 55.1497 34.2175 55.0876 34.7511C55.0256 35.2643 54.7774 35.7569 54.3639 36.0853C54.3432 36.1059 54.3225 36.1264 54.2812 36.1469C53.971 36.4138 53.5367 36.5369 53.1024 36.5369Z" fill="white"/>
<path d="M39.8467 30.5432C39.8467 31.2411 40.405 31.7953 41.1081 31.7953C41.8112 31.7953 42.3695 31.2411 42.3695 30.5432C42.3695 29.8453 41.8112 29.2911 41.1081 29.2911C40.405 29.2911 39.8467 29.8658 39.8467 30.5432Z" fill="white"/>
<path d="M41.1083 33.8274C39.2885 33.8274 37.8203 32.37 37.8203 30.5637C37.8203 28.7574 39.2885 27.3 41.1083 27.3C42.928 27.3 44.3962 28.7574 44.3962 30.5637C44.4169 32.3495 42.928 33.8274 41.1083 33.8274ZM41.1083 29.8042C40.6947 29.8042 40.3432 30.1326 40.3432 30.5637C40.3432 30.9742 40.674 31.3231 41.1083 31.3231C41.5219 31.3231 41.8734 30.9947 41.8734 30.5637C41.8734 30.1326 41.5425 29.8042 41.1083 29.8042Z" fill="white"/>
<path d="M48.0977 30.0711C48.0977 30.769 48.656 31.3232 49.3591 31.3232C50.0622 31.3232 50.6205 30.769 50.6205 30.0711C50.6205 29.3732 50.0622 28.819 49.3591 28.819C48.656 28.819 48.0977 29.3937 48.0977 30.0711Z" fill="white"/>
<path d="M48.4292 35.5517C45.1412 35.5517 42.4736 32.9038 42.4736 29.6401C42.4736 26.3764 45.1412 23.7285 48.4292 23.7285C51.7172 23.7285 54.3847 26.3764 54.3847 29.6401C54.3847 32.9038 51.7172 35.5517 48.4292 35.5517ZM48.4292 28.3059C47.6847 28.3059 47.0644 28.9217 47.0644 29.6606C47.0644 30.3996 47.6847 31.0154 48.4292 31.0154C49.1736 31.0154 49.794 30.3996 49.794 29.6606C49.794 28.9011 49.1736 28.3059 48.4292 28.3059Z" fill="white"/>
<path d="M31.9058 48.1959C32.795 46.8001 34.2012 44.3369 37.2824 44.5627C36.8067 46.9232 37.2203 49.8175 37.5925 51.5827C40.4049 49.4069 42.5141 47.3543 44.1064 45.5685C42.2453 45.199 37.8614 43.7827 34.5527 38.6306C32.1953 39.4311 29.445 41.0527 27.3978 44.3985C27.1496 44.809 27.0049 45.2811 27.0049 45.7738V46.6975C27.0049 48.0932 28.0595 49.3043 29.445 49.4069C30.4583 49.4685 31.3888 48.9964 31.9058 48.1959Z" fill="white"/>
<path d="M37.614 53.5736C37.3866 53.5736 37.1384 53.5325 36.9109 53.4504C36.2492 53.2041 35.7736 52.6499 35.6288 51.9725C35.36 50.6794 35.1119 49.0167 35.0705 47.3336C34.6156 47.7646 34.202 48.3804 33.7677 49.0578L33.6437 49.263C32.7131 50.7204 31.0588 51.5415 29.3217 51.3978C26.9023 51.213 25.0205 49.1399 25.0205 46.6767V45.753C25.0205 44.8909 25.248 44.0699 25.7029 43.3309C27.6467 40.1699 30.5004 37.8709 33.9332 36.7009C34.8224 36.393 35.7943 36.742 36.2906 37.522C39.2063 42.0788 43.0319 43.2694 44.5415 43.5773C45.2446 43.7209 45.8236 44.2341 46.0511 44.9115C46.2785 45.5888 46.1338 46.3483 45.6582 46.882C43.7557 49.0373 41.481 51.1309 38.8754 53.1425C38.4825 53.4299 38.0483 53.5736 37.614 53.5736ZM39.165 45.7736C39.1029 46.3483 39.1029 46.9846 39.1236 47.662C39.5785 47.2515 40.0335 46.8409 40.4471 46.4304C40.0335 46.2457 39.5992 46.0404 39.165 45.7736ZM33.8298 41.073C31.9066 42.0173 30.3143 43.4746 29.1356 45.4041C29.0736 45.5067 29.0529 45.6094 29.0529 45.7325V46.6562C29.0529 47.0257 29.3217 47.3541 29.6319 47.3746C29.8801 47.3952 30.1075 47.2925 30.2316 47.0873L30.3557 46.882C31.1208 45.6709 32.5683 43.3925 35.2773 42.6946C34.7603 42.2225 34.2847 41.6888 33.8298 41.073Z" fill="white"/>
<path d="M64.6618 29.5374C64.5377 29.2705 64.5377 28.9832 64.6618 28.7163L65.7991 26.2532C66.192 25.4116 65.3235 24.5495 64.4757 24.9395L61.9942 26.0684C61.7253 26.1916 61.4358 26.1916 61.167 26.0684L58.6855 24.9395C57.8377 24.5495 56.9692 25.4116 57.3621 26.2532L58.4994 28.7163C58.6235 28.9832 58.6235 29.2705 58.4994 29.5374L57.9618 30.7279C57.3207 30.8716 56.6797 31.1384 56.3281 31.4669C55.625 32.1442 54.9633 32.76 54.9633 32.7805C54.9633 32.8011 54.9633 32.8011 54.9633 32.8216C54.7152 33.0679 54.5084 33.3553 54.3636 33.6837C54.1568 34.1148 53.8673 34.6484 53.4951 35.2232C52.9988 34.4842 52.3991 33.93 51.8408 33.54C51.7994 33.499 51.7374 33.4579 51.696 33.4169C51.6547 33.3963 51.5926 33.3553 51.5513 33.3348C50.6827 32.7805 49.9797 32.5548 49.9797 32.5548C49.1111 32.2058 48.0772 31.939 46.8365 31.8158C44.3757 31.59 40.9843 32.8832 37.4482 33.3758C37.1794 33.4169 36.9312 33.3963 36.6831 33.3142C36.0006 33.109 35.4837 32.5137 35.4423 31.7542C35.401 31.2205 35.6698 30.769 36.042 30.42C36.2074 30.2763 36.3729 30.1326 36.5797 30.0095C38.751 28.6342 45.1201 26.1916 51.5513 28.9011C51.9028 29.0448 52.2544 28.7163 52.1303 28.3674C50.6621 23.9748 46.8365 21.3063 42.0182 22.0453C37.8618 22.6816 34.6979 25.7811 33.8294 29.6195C33.7673 29.6195 33.726 29.6195 33.6639 29.64C33.0849 29.7221 32.5886 29.989 32.1957 30.3584C31.017 29.3937 28.184 27.3821 24.7719 26.9716L21.6494 30.8511C21.6494 30.8511 28.2667 30.4611 31.4306 31.549C31.3686 31.7748 31.3065 32.0005 31.3065 32.2469C29.6315 32.4521 26.5297 33.0884 24.0482 35.0179L24.6065 39.9442C24.6065 39.9442 28.701 35.3874 31.6787 33.7453C32.175 34.5869 33.1056 35.1411 34.1395 35.1205C34.5324 36.229 35.1115 37.2348 35.8352 38.0969C35.8352 38.0969 39.7022 42.5305 45.9266 43.3516C47.3741 41.4221 48.0565 40.0469 48.284 39.5542L50.2278 38.9384C47.4568 47.58 37.2 55.1337 37.2 55.1337C36.4763 55.9958 35.1321 57.1042 32.6093 58.1716C32.2991 58.3153 32.0303 58.5205 31.8442 58.8079C31.2858 59.629 30.1898 61.5174 30.1071 63.8163C30.1071 63.8163 28.8457 68.599 37.076 63.8163C41.1911 61.3737 45.8852 57.5353 47.2087 55.2774C47.2087 55.2774 48.7389 54.6616 49.6074 54.0253C49.6074 54.0253 48.3874 59.3005 48.6769 60.3269C48.9664 61.3532 50.4346 61.7021 53.9087 57.4326C57.4034 53.1426 58.7889 48.1753 58.8096 46.5948C58.8096 45.0142 56.0386 41.9353 50.6621 45.1784C50.6621 45.1784 57.1553 38.7742 60.3192 35.3463C61.0223 34.5869 61.1463 33.3142 60.8361 32.3495L61.2084 32.1853C61.4772 32.0621 61.7667 32.0621 62.0355 32.1853L64.517 33.3142C65.3648 33.7042 66.2334 32.8421 65.8405 32.0005L64.6618 29.5374ZM40.426 24.529C40.3846 24.5495 40.3432 24.57 40.3019 24.5905C40.488 24.4879 40.6741 24.4058 40.9016 24.3032C40.8809 24.3032 40.8602 24.3237 40.8395 24.3237C40.6948 24.4058 40.5707 24.4674 40.426 24.529ZM39.33 25.2063L39.3507 25.1858C39.3507 25.1858 39.33 25.1858 39.33 25.2063ZM39.7436 24.919C39.8056 24.8779 39.8676 24.8574 39.9297 24.8163C39.8469 24.8369 39.8056 24.8779 39.7436 24.919ZM43.0315 24.7342C43.1556 24.7342 43.259 24.7342 43.3831 24.7342C43.3831 24.7342 43.3831 24.7342 43.4037 24.7342C43.259 24.7342 43.1349 24.7342 43.0315 24.7342ZM44.8306 24.8984C44.8719 24.8984 44.8719 24.8984 44.8926 24.919C44.8719 24.919 44.8306 24.8984 44.8099 24.8984C44.8099 24.8984 44.8099 24.8984 44.8306 24.8984ZM45.451 25.0626C45.4303 25.0626 45.3889 25.0421 45.3476 25.0421C45.3889 25.0421 45.4303 25.0421 45.451 25.0626ZM46.1127 25.2884C46.092 25.2679 46.0507 25.2679 46.03 25.2474C46.0713 25.2679 46.092 25.2679 46.1127 25.2884ZM45.9059 25.2063C45.8852 25.1858 45.8439 25.1858 45.8232 25.1653C45.8439 25.1858 45.8645 25.1858 45.9059 25.2063ZM44.8099 26.479C47.7877 26.479 50.2485 26.9511 50.2485 26.9511C50.2692 26.9511 47.7877 26.479 44.8099 26.479ZM42.1216 23.8926C42.3077 23.8516 42.4939 23.8105 42.68 23.7695C43.0729 23.7079 43.4865 23.6669 43.9207 23.6669C43.7139 23.6669 43.4865 23.6669 43.2797 23.6874C43.1969 23.6874 43.1349 23.7079 43.0522 23.7079C42.9281 23.7284 42.8247 23.7284 42.7007 23.749H42.68H42.6593C42.4939 23.7695 42.3284 23.8105 42.163 23.8516C42.163 23.8926 42.1423 23.8926 42.1216 23.8926C42.101 23.8926 42.0803 23.8926 42.0803 23.9132C41.9976 23.9337 41.9148 23.9542 41.8321 23.9748C41.8115 23.9748 41.7908 23.9748 41.7908 23.9953C41.7701 23.9953 41.7494 24.0158 41.7287 24.0158C41.5013 24.0774 41.2738 24.1595 41.067 24.2416C41.0463 24.2416 41.0463 24.2621 41.0256 24.2621C41.2531 24.1595 41.5013 24.0774 41.7908 23.9953C41.8942 23.9542 41.9976 23.9337 42.1216 23.8926ZM46.4229 25.4321C39.9503 25.3911 37.1173 28.1826 37.1173 28.1826C37.1173 28.1826 39.971 25.3911 46.4229 25.4321ZM61.5806 30.7279C60.7121 30.7279 60.0297 30.03 60.0297 29.1884C60.0297 28.3263 60.7327 27.649 61.5806 27.649C62.4491 27.649 63.1315 28.3469 63.1315 29.1884C63.1522 30.03 62.4491 30.7279 61.5806 30.7279Z" fill="white"/>
<path d="M66.7089 29.1268L67.6602 27.0947C68.1978 25.9452 67.9497 24.611 67.0605 23.7284C66.1506 22.8252 64.8271 22.5995 63.6691 23.1331L61.6219 24.0774L59.5747 23.1331C58.4167 22.5995 57.0725 22.8458 56.1833 23.7284C55.2734 24.6316 55.046 25.9452 55.5836 27.0947L56.5142 29.0858C55.9972 29.291 55.4389 29.5784 54.9839 30.0095L54.9633 30.03C54.6117 30.3584 54.2602 30.6868 54.012 30.9126C53.7639 31.1384 53.5157 31.3642 53.3296 31.631C53.2469 31.7337 53.1642 31.8158 53.1021 31.9184C53.0194 31.8568 52.916 31.7747 52.792 31.6926C52.7506 31.6721 52.7092 31.631 52.6472 31.6105H52.6265C52.1509 31.3026 51.7167 31.0768 51.3651 30.9331C52.0889 31.0358 52.8333 30.8305 53.3917 30.3174C54.0947 29.6605 54.3636 28.6547 54.0534 27.7516C52.2129 22.2095 47.3741 19.1921 41.708 20.0747C37.2827 20.7521 33.6846 23.7695 32.237 27.8952C30.5413 26.7252 27.9978 25.35 25.02 25.001C24.317 24.9189 23.6346 25.2063 23.2003 25.74L20.0778 29.6195C19.5815 30.2352 19.4987 31.0974 19.871 31.7952C20.2432 32.4931 20.9876 32.9242 21.7941 32.8831C22.2491 32.8626 22.9315 32.8216 23.7173 32.8216C23.4071 33.0268 23.1176 33.2321 22.8281 33.4579C22.2697 33.8889 21.9802 34.5663 22.0629 35.2642L22.6213 40.1905C22.704 40.9705 23.2623 41.6479 24.0275 41.8737C24.7926 42.12 25.6197 41.8942 26.1574 41.2989C27.0466 40.3137 29.4247 37.8505 31.4512 36.3316C31.8441 36.5984 32.2784 36.8037 32.754 36.9268C33.1676 37.8095 33.7052 38.6305 34.3256 39.3695C34.3463 39.39 34.3463 39.39 34.367 39.4105C34.5324 39.5952 38.3373 43.8852 44.541 45.1374C40.8188 49.9405 36.1247 53.4505 36.042 53.5121C35.9179 53.6147 35.7938 53.7174 35.6904 53.8405C35.1941 54.4358 34.1188 55.3595 31.8441 56.3242C31.1824 56.6116 30.6034 57.0837 30.2105 57.6789C29.4867 58.7258 28.2873 60.881 28.1219 63.5495C27.8944 64.7195 28.0805 66.3 29.3626 67.2647C29.983 67.7368 30.7275 67.9626 31.6167 67.9626C33.2503 67.9626 35.3596 67.1621 38.1512 65.5405C40.9636 63.8779 44.3342 61.3737 46.671 59.0747C46.6089 59.7931 46.6296 60.4295 46.733 60.8605C47.0432 61.9484 47.8497 62.7284 48.9043 62.9337C50.7654 63.3237 52.792 62.01 55.5009 58.6847C59.1197 54.2305 60.8361 48.8321 60.8568 46.5947C60.8568 45.0347 59.8228 43.4337 58.2099 42.5305C57.8376 42.3252 57.362 42.0995 56.7623 41.9558C58.5407 40.1495 60.4846 38.1789 61.8287 36.701C62.325 36.1674 62.6765 35.49 62.8626 34.751L63.6898 35.1205C64.8478 35.6542 66.192 35.4079 67.0812 34.5252C67.991 33.6221 68.2185 32.3084 67.6809 31.1589L66.7089 29.1268ZM33.4157 32.7395C33.3744 32.6779 33.333 32.6163 33.2917 32.5547C33.3123 32.4726 33.3123 32.411 33.3123 32.3289C33.3123 32.2674 33.333 32.2058 33.3537 32.1442C33.3744 32.0826 33.395 32.021 33.395 31.9389C33.4157 32.2879 33.4984 32.6368 33.6225 32.9652C33.5398 32.9037 33.4778 32.8216 33.4157 32.7395ZM56.7417 46.6358C56.7003 47.6826 55.6043 52.1163 52.2957 56.16C51.7373 56.8374 51.2617 57.371 50.8688 57.761C51.0549 56.7347 51.2824 55.5237 51.5305 54.4768C51.7167 53.6558 51.3651 52.7937 50.662 52.3421C49.9589 51.8905 49.0284 51.911 48.346 52.4242C47.8704 52.7731 46.8984 53.2247 46.4021 53.43C45.9886 53.5942 45.637 53.9021 45.4096 54.2921C44.3342 56.1189 39.9503 59.7726 36.0213 62.0921C33.9327 63.3031 32.7333 63.7342 32.0923 63.8779C32.175 62.1126 33.0435 60.6142 33.4571 59.9984C35.7111 59.0131 37.4481 57.8842 38.5648 56.6116C39.6608 55.7905 44.9546 51.6237 48.8009 46.061C48.8629 46.1842 48.9457 46.3074 49.0284 46.41C49.6694 47.2105 50.8068 47.4158 51.6753 46.8821C53.4123 45.8352 54.9219 45.5068 55.9559 45.9174C56.4935 46.1431 56.7003 46.5126 56.7417 46.6358ZM58.7889 33.971C56.8244 36.0852 53.5364 39.4105 51.3651 41.5863C51.6753 40.9089 51.9234 40.2316 52.1509 39.5337C52.3784 38.8152 52.1923 38.0352 51.6546 37.5016C51.2617 37.1116 50.7447 36.9063 50.2278 36.9063C50.021 36.9063 49.8142 36.9268 49.6281 37.0089L47.6842 37.6247C47.1259 37.7889 46.671 38.1995 46.4435 38.7331C46.3194 39 45.9059 39.8826 45.0373 41.1552C40.5086 40.1289 37.5929 37.0089 37.3861 36.8037C37.0139 36.3521 36.683 35.8595 36.4349 35.3258C36.8691 35.4079 37.2827 35.4284 37.717 35.3668C39.2058 35.1616 40.5913 34.8331 41.9562 34.5252C43.7759 34.1147 45.4716 33.7042 46.6503 33.8274C47.5602 33.9095 48.4287 34.1147 49.2352 34.4431C49.2972 34.4637 49.3799 34.4842 49.442 34.5047C49.5867 34.5663 49.9796 34.7305 50.4346 35.0179C50.4552 35.0384 50.4759 35.0384 50.4966 35.0589L50.5586 35.0795C50.6 35.1 50.6207 35.141 50.662 35.1616C51.1376 35.5105 51.5305 35.9005 51.82 36.3316C52.1923 36.8858 52.8333 37.2142 53.4951 37.2142H53.5157C54.1981 37.2142 54.8185 36.8652 55.1907 36.2905C55.563 35.7158 55.8938 35.141 56.1833 34.5252C56.2454 34.4021 56.3281 34.2995 56.3901 34.2174C56.4728 34.1352 56.5555 34.0531 56.6176 33.9505C56.8657 33.7042 57.3207 33.2731 57.6929 32.9447C57.7756 32.8831 58.0238 32.76 58.4167 32.6779C58.5407 32.6574 58.6648 32.6163 58.7889 32.5547C58.8096 32.6984 58.8302 32.8216 58.8716 32.9652C58.9957 33.3552 58.9129 33.8479 58.7889 33.971Z" fill="white"/>
<path d="M41.1911 31.4669C41.8878 31.4669 42.4525 30.9063 42.4525 30.2147C42.4525 29.5232 41.8878 28.9626 41.1911 28.9626C40.4944 28.9626 39.9297 29.5232 39.9297 30.2147C39.9297 30.9063 40.4944 31.4669 41.1911 31.4669Z" fill="#1D1238"/>
<path d="M49.4421 30.9948C50.1387 30.9948 50.7035 30.4342 50.7035 29.7427C50.7035 29.0512 50.1387 28.4906 49.4421 28.4906C48.7454 28.4906 48.1807 29.0512 48.1807 29.7427C48.1807 30.4342 48.7454 30.9948 49.4421 30.9948Z" fill="#1D1238"/>
<path d="M31.9888 47.847C32.878 46.4512 34.2842 43.9881 37.3654 44.2138C36.8897 46.5744 37.3033 49.4686 37.6755 51.2338C40.4879 49.0581 42.5971 47.0054 44.1894 45.2196C42.3283 44.8502 37.9444 43.4338 34.6357 38.2817C32.2783 39.0823 29.528 40.7038 27.4808 44.0496C27.2326 44.4602 27.0879 44.9323 27.0879 45.4249V46.3486C27.0879 47.7444 28.1218 48.9554 29.528 49.0581C30.5206 49.1402 31.4718 48.6475 31.9888 47.847Z" fill="#1D1238"/>
<path d="M64.7448 29.1885C64.6207 28.9217 64.6207 28.6343 64.7448 28.3675L65.8821 25.9043C66.275 25.0627 65.4065 24.2006 64.5587 24.5906L62.0772 25.7196C61.8083 25.8427 61.5188 25.8427 61.25 25.7196L58.7685 24.5906C57.9207 24.2006 57.0522 25.0627 57.4451 25.9043L58.5824 28.3675C58.7065 28.6343 58.7065 28.9217 58.5824 29.1885L58.0448 30.379C57.4037 30.5227 56.7627 30.7896 56.4111 31.118C55.708 31.7954 55.0463 32.4111 55.0463 32.4317C55.0463 32.4522 55.0463 32.4522 55.0463 32.4727C54.7982 32.719 54.5914 33.0064 54.4466 33.3348C54.2398 33.7659 53.9503 34.2996 53.5781 34.8743C53.0818 34.1353 52.4821 33.5811 51.9238 33.1911C51.8824 33.1501 51.8204 33.109 51.779 33.068C51.7377 33.0475 51.6756 33.0064 51.6343 32.9859C50.7658 32.4317 50.0627 32.2059 50.0627 32.2059C49.1941 31.8569 48.1602 31.5901 46.9195 31.4669C44.4587 31.2411 41.0673 32.5343 37.5312 33.0269C37.2624 33.068 37.0142 33.0475 36.7661 32.9654C36.0837 32.7601 35.5667 32.1648 35.5253 31.4053C35.484 30.8717 35.7528 30.4201 36.125 30.0711C36.2904 29.9275 36.4559 29.7838 36.6627 29.6606C38.834 28.2853 45.2031 25.8427 51.6343 28.5522C51.9858 28.6959 52.3374 28.3675 52.2133 28.0185C50.7451 23.6259 46.9401 20.9575 42.1012 21.6964C37.9448 22.3327 34.7809 25.4322 33.9124 29.2706C33.8503 29.2706 33.809 29.2706 33.7469 29.2911C33.1679 29.3732 32.6716 29.6401 32.2787 30.0096C31.1 29.0448 28.267 27.0332 24.855 26.6227L21.7324 30.5022C21.7324 30.5022 28.3497 30.1122 31.5136 31.2001C31.4516 31.4259 31.3895 31.6517 31.3895 31.898C29.7145 32.1032 26.6127 32.7396 24.1312 34.669L24.6895 39.5953C24.6895 39.5953 28.784 35.0385 31.7617 33.3964C32.258 34.238 33.1886 34.7922 34.2225 34.7717C34.6154 35.8801 35.1945 36.8859 35.9182 37.748C35.9182 37.748 39.7852 42.1817 46.0096 43.0027C47.4571 41.0732 48.1395 39.698 48.367 39.2054L50.3108 38.5896C47.5398 47.2311 37.283 54.7848 37.283 54.7848C36.5593 55.6469 35.2151 56.7554 32.6923 57.8227C32.3821 57.9664 32.1133 58.1717 31.9272 58.459C31.3688 59.2801 30.2729 61.1685 30.1901 63.4675C30.1901 63.4675 28.9287 68.2501 37.159 63.4675C41.2741 61.0248 45.9475 57.1864 47.2917 54.9285C47.2917 54.9285 48.8219 54.3127 49.6904 53.6764C49.6904 53.6764 48.4704 58.9517 48.7599 59.978C49.0494 61.0043 50.5176 61.3532 53.9917 57.0838C57.4864 52.7938 58.8719 47.8264 58.8926 46.2459C58.8926 44.6653 56.1216 41.5864 50.7451 44.8296C50.7451 44.8296 57.2383 38.4254 60.4022 34.9975C61.1053 34.238 61.2293 32.9653 60.9192 32.0006L61.2914 31.8364C61.5602 31.7132 61.8497 31.7132 62.1185 31.8364L64.6 32.9654C65.4478 33.3554 66.3164 32.4932 65.9235 31.6517L64.7448 29.1885ZM39.3096 24.919C39.3096 24.919 44.8309 20.3827 50.3315 26.6022C50.3315 26.6022 41.5636 24.9396 37.1796 27.8338C37.1796 27.8338 40.0127 25.0422 46.4852 25.0832C46.5059 25.0832 44.0864 23.6464 39.3096 24.919ZM61.6636 30.379C60.7951 30.379 60.1127 29.6811 60.1127 28.8396C60.1127 27.9775 60.8158 27.3001 61.6636 27.3001C62.5321 27.3001 63.2145 27.998 63.2145 28.8396C63.2145 29.7017 62.5114 30.379 61.6636 30.379Z" fill="#1D1238"/>
<defs>
<linearGradient id="paint0_linear_10066_173" x1="60.2468" y1="17.6543" x2="36.5418" y2="54.0274" gradientUnits="userSpaceOnUse">
<stop stop-color="#FC9518"/>
<stop offset="0.5056" stop-color="#F510C2"/>
<stop offset="1" stop-color="#6B1CF6"/>
</linearGradient>
</defs>
</svg>
