<svg width="201" height="78" viewBox="0 0 201 78" fill="none" xmlns="http://www.w3.org/2000/svg">
<g clip-path="url(#clip0_1_1940)">
<path d="M82.4265 22.189V32.4521H94.2342V37.2142H76.533V22.189H82.4265Z" fill="white"/>
<mask id="mask0_1_1940" style="mask-type:luminance" maskUnits="userSpaceOnUse" x="-60" y="-30" width="332" height="247">
<path d="M271.309 -29.5579H-59.5557V216.758H271.309V-29.5579Z" fill="white"/>
</mask>
<g mask="url(#mask0_1_1940)">
<path d="M115.348 29.1475V30.2354C115.369 35.9006 110.716 37.5427 105.029 37.5633C99.3423 37.5427 94.6688 35.9006 94.6895 30.2354V29.1475C94.6688 23.4617 99.3216 21.8401 105.029 21.8196C110.716 21.8196 115.348 23.4822 115.348 29.1475ZM109.454 29.5169C109.496 27.0743 107.448 26.6227 105.029 26.5817C102.61 26.6227 100.562 27.0538 100.604 29.5169V29.8864C100.562 32.3496 102.61 32.7806 105.029 32.8217C107.428 32.7806 109.475 32.3496 109.454 29.8864V29.5169Z" fill="white"/>
</g>
<mask id="mask1_1_1940" style="mask-type:luminance" maskUnits="userSpaceOnUse" x="-60" y="-30" width="332" height="247">
<path d="M271.309 -29.5579H-59.5557V216.758H271.309V-29.5579Z" fill="white"/>
</mask>
<g mask="url(#mask1_1_1940)">
<path d="M137.37 33.191C137.411 35.8184 135.178 37.2142 132.573 37.2142H117.084V22.2094H131.456C134.082 22.1889 136.295 23.6258 136.253 26.2326C136.253 27.6694 135.571 28.7779 134.496 29.4552C136.233 30.0094 137.37 31.3026 137.37 33.191ZM122.978 25.781V27.8131H129.802C130.298 27.8131 130.732 27.3 130.732 26.7868C130.732 26.2942 130.319 25.781 129.802 25.781H122.978ZM130.918 33.6631C131.415 33.6631 131.849 33.1705 131.849 32.6573C131.849 32.1647 131.435 31.6516 130.918 31.6516H122.978V33.6631H130.918Z" fill="white"/>
</g>
<mask id="mask2_1_1940" style="mask-type:luminance" maskUnits="userSpaceOnUse" x="-60" y="-30" width="332" height="247">
<path d="M271.309 -29.5579H-59.5557V216.758H271.309V-29.5579Z" fill="white"/>
</mask>
<g mask="url(#mask2_1_1940)">
<path d="M159.249 33.1911C159.29 35.8185 157.057 37.2143 154.451 37.2143H138.963V22.2096H153.335C155.961 22.189 158.174 23.6259 158.132 26.2327C158.132 27.6696 157.45 28.778 156.375 29.4554C158.091 30.0096 159.249 31.3027 159.249 33.1911ZM144.856 25.7811V27.8133H151.68C152.177 27.8133 152.611 27.3001 152.611 26.7869C152.611 26.2943 152.197 25.7811 151.68 25.7811H144.856ZM152.797 33.6633C153.293 33.6633 153.728 33.1706 153.728 32.6575C153.728 32.1648 153.314 31.6517 152.797 31.6517H144.856V33.6633H152.797Z" fill="white"/>
</g>
<mask id="mask3_1_1940" style="mask-type:luminance" maskUnits="userSpaceOnUse" x="-60" y="-30" width="332" height="247">
<path d="M271.309 -29.5579H-59.5557V216.758H271.309V-29.5579Z" fill="white"/>
</mask>
<g mask="url(#mask3_1_1940)">
<path d="M168.906 27.6079L173.352 22.2095H180.342L171.863 32.1032V37.2347H165.97V32.1032L157.491 22.2095H164.501L168.906 27.6079Z" fill="white"/>
</g>
<mask id="mask4_1_1940" style="mask-type:luminance" maskUnits="userSpaceOnUse" x="-60" y="-30" width="332" height="247">
<path d="M271.309 -29.5579H-59.5557V216.758H271.309V-29.5579Z" fill="white"/>
</mask>
<g mask="url(#mask4_1_1940)">
<path d="M92.0838 40.6831H98.3082V56.4884H91.3187L82.7576 46.841V56.4884H76.5332V40.6831H85.0943L92.0838 49.0578V40.6831Z" fill="white"/>
</g>
<mask id="mask5_1_1940" style="mask-type:luminance" maskUnits="userSpaceOnUse" x="-60" y="-30" width="332" height="247">
<path d="M271.309 -29.5579H-59.5557V216.758H271.309V-29.5579Z" fill="white"/>
</mask>
<g mask="url(#mask5_1_1940)">
<path d="M108.13 40.6832H101.927V56.509H108.13V40.6832Z" fill="white"/>
</g>
<mask id="mask6_1_1940" style="mask-type:luminance" maskUnits="userSpaceOnUse" x="-60" y="-30" width="332" height="247">
<path d="M271.309 -29.5579H-59.5557V216.758H271.309V-29.5579Z" fill="white"/>
</mask>
<g mask="url(#mask6_1_1940)">
<path d="M126.99 40.6831H133.214V56.4884H126.204L117.643 46.841V56.4884H111.439V40.6831H119.98L126.99 49.0578V40.6831Z" fill="white"/>
</g>
<mask id="mask7_1_1940" style="mask-type:luminance" maskUnits="userSpaceOnUse" x="-60" y="-30" width="332" height="247">
<path d="M271.309 -29.5579H-59.5557V216.758H271.309V-29.5579Z" fill="white"/>
</mask>
<g mask="url(#mask7_1_1940)">
<path d="M150.646 40.6832H156.85V49.1606C156.85 55.1338 151.991 56.8785 145.973 56.8785C139.976 56.858 135.075 55.1543 135.096 49.1606V47.2311H141.299V48.7706C141.258 51.3774 143.429 51.829 145.952 51.8495C148.496 51.8085 150.667 51.3569 150.626 48.7706V40.6832H150.646Z" fill="white"/>
</g>
<mask id="mask8_1_1940" style="mask-type:luminance" maskUnits="userSpaceOnUse" x="-60" y="-30" width="332" height="247">
<path d="M271.309 -29.5579H-59.5557V216.758H271.309V-29.5579Z" fill="white"/>
</mask>
<g mask="url(#mask8_1_1940)">
<path d="M164.419 40.7037H171.801L180.342 56.5295H173.352L172.091 53.8201H164.109L162.847 56.5295H155.858L164.419 40.7037ZM165.928 49.9611H170.312L168.12 45.2811L165.928 49.9611Z" fill="white"/>
</g>
<mask id="mask9_1_1940" style="mask-type:luminance" maskUnits="userSpaceOnUse" x="-60" y="-30" width="332" height="247">
<path d="M271.309 -29.5579H-59.5557V216.758H271.309V-29.5579Z" fill="white"/>
</mask>
<g mask="url(#mask9_1_1940)">
<path d="M77.6493 62.5438L76.7188 59.7317H77.4012L78.2076 62.2359H77.8561L78.7039 59.7317H79.3243L80.1308 62.2359H79.7999L80.6271 59.7317H81.2681L80.3376 62.5438H79.6345L78.9107 60.3475H79.0968L78.3524 62.5438H77.6493Z" fill="white"/>
</g>
<mask id="mask10_1_1940" style="mask-type:luminance" maskUnits="userSpaceOnUse" x="-60" y="-30" width="332" height="247">
<path d="M271.309 -29.5579H-59.5557V216.758H271.309V-29.5579Z" fill="white"/>
</mask>
<g mask="url(#mask10_1_1940)">
<path d="M83.5221 62.5438H82.8604V59.7317H83.5221V62.5438ZM84.8455 61.3943H83.46V60.8401H84.8455V61.3943ZM84.8042 59.7317H85.4659V62.5643H84.8042V59.7317Z" fill="white"/>
</g>
<mask id="mask11_1_1940" style="mask-type:luminance" maskUnits="userSpaceOnUse" x="-60" y="-30" width="332" height="247">
<path d="M271.309 -29.5579H-59.5557V216.758H271.309V-29.5579Z" fill="white"/>
</mask>
<g mask="url(#mask11_1_1940)">
<path d="M88.0094 62.0306H89.5603V62.5643H87.3477V59.7317H89.4983V60.2654H88.0094V62.0306ZM87.968 60.8606H89.3328V61.3738H87.968V60.8606Z" fill="white"/>
</g>
<mask id="mask12_1_1940" style="mask-type:luminance" maskUnits="userSpaceOnUse" x="-60" y="-30" width="332" height="247">
<path d="M271.309 -29.5579H-59.5557V216.758H271.309V-29.5579Z" fill="white"/>
</mask>
<g mask="url(#mask12_1_1940)">
<path d="M91.2979 62.5437V59.7316H92.5386C92.7867 59.7316 93.0142 59.7726 93.2003 59.8547C93.3864 59.9368 93.5312 60.06 93.6346 60.2037C93.738 60.3474 93.7793 60.5321 93.7793 60.7579C93.7793 60.9631 93.738 61.1479 93.6346 61.3121C93.5312 61.4558 93.3864 61.5789 93.2003 61.661C93.0142 61.7431 92.7867 61.7842 92.5386 61.7842H91.6701L91.9803 61.4968V62.5642H91.2979V62.5437ZM91.9803 61.5584L91.6701 61.2505H92.4972C92.704 61.2505 92.8488 61.2095 92.9522 61.1274C93.0556 61.0452 93.0969 60.9221 93.0969 60.7579C93.0969 60.5937 93.0556 60.491 92.9522 60.3884C92.8488 60.3063 92.704 60.2653 92.4972 60.2653H91.6701L91.9803 59.9574V61.5584ZM93.1176 62.5437L92.3938 61.5174H93.0969L93.8207 62.5437H93.1176Z" fill="white"/>
</g>
<mask id="mask13_1_1940" style="mask-type:luminance" maskUnits="userSpaceOnUse" x="-60" y="-30" width="332" height="247">
<path d="M271.309 -29.5579H-59.5557V216.758H271.309V-29.5579Z" fill="white"/>
</mask>
<g mask="url(#mask13_1_1940)">
<path d="M96.1783 62.0306H97.7293V62.5643H95.5166V59.7317H97.6672V60.2654H96.1783V62.0306ZM96.1163 60.8606H97.4811V61.3738H96.1163V60.8606Z" fill="white"/>
</g>
<mask id="mask14_1_1940" style="mask-type:luminance" maskUnits="userSpaceOnUse" x="-60" y="-30" width="332" height="247">
<path d="M271.309 -29.5579H-59.5557V216.758H271.309V-29.5579Z" fill="white"/>
</mask>
<g mask="url(#mask14_1_1940)">
<path d="M101.472 62.5437L102.733 59.7111H103.374L104.656 62.5437H103.974L102.919 60.0395H103.188L102.134 62.5437H101.472ZM102.092 61.9484L102.258 61.4558H103.726L103.891 61.9484H102.092Z" fill="white"/>
</g>
<mask id="mask15_1_1940" style="mask-type:luminance" maskUnits="userSpaceOnUse" x="-60" y="-30" width="332" height="247">
<path d="M271.309 -29.5579H-59.5557V216.758H271.309V-29.5579Z" fill="white"/>
</mask>
<g mask="url(#mask15_1_1940)">
<path d="M106.166 62.5437V59.7316H106.828V62.01H108.255V62.5437H106.166Z" fill="white"/>
</g>
<mask id="mask16_1_1940" style="mask-type:luminance" maskUnits="userSpaceOnUse" x="-60" y="-30" width="332" height="247">
<path d="M271.309 -29.5579H-59.5557V216.758H271.309V-29.5579Z" fill="white"/>
</mask>
<g mask="url(#mask16_1_1940)">
<path d="M109.847 62.5437V59.7316H110.509V62.01H111.935V62.5437H109.847Z" fill="white"/>
</g>
<mask id="mask17_1_1940" style="mask-type:luminance" maskUnits="userSpaceOnUse" x="-60" y="-30" width="332" height="247">
<path d="M271.309 -29.5579H-59.5557V216.758H271.309V-29.5579Z" fill="white"/>
</mask>
<g mask="url(#mask17_1_1940)">
<path d="M116.485 62.5438V60.2654H115.575V59.7317H118.057V60.2654H117.147V62.5438H116.485Z" fill="white"/>
</g>
<mask id="mask18_1_1940" style="mask-type:luminance" maskUnits="userSpaceOnUse" x="-60" y="-30" width="332" height="247">
<path d="M271.309 -29.5579H-59.5557V216.758H271.309V-29.5579Z" fill="white"/>
</mask>
<g mask="url(#mask18_1_1940)">
<path d="M120.972 62.6053C120.745 62.6053 120.538 62.5642 120.352 62.5027C120.166 62.4206 120 62.3179 119.855 62.1948C119.711 62.0716 119.607 61.9074 119.524 61.7227C119.442 61.5379 119.4 61.3532 119.4 61.1479C119.4 60.9427 119.442 60.7374 119.524 60.5732C119.607 60.3885 119.711 60.2448 119.855 60.1011C120 59.9779 120.166 59.8753 120.352 59.7932C120.538 59.7111 120.745 59.6906 120.972 59.6906C121.199 59.6906 121.406 59.7316 121.592 59.7932C121.778 59.8548 121.944 59.9574 122.089 60.1011C122.233 60.2242 122.337 60.3885 122.42 60.5732C122.502 60.7579 122.544 60.9427 122.544 61.1684C122.544 61.3737 122.502 61.579 122.42 61.7432C122.337 61.9279 122.233 62.0716 122.089 62.2153C121.944 62.3385 121.778 62.4411 121.592 62.5232C121.406 62.5642 121.199 62.6053 120.972 62.6053ZM120.972 62.0511C121.096 62.0511 121.22 62.0306 121.324 61.9895C121.427 61.9484 121.53 61.8869 121.613 61.8048C121.696 61.7227 121.758 61.62 121.799 61.5174C121.841 61.4148 121.861 61.2916 121.861 61.1479C121.861 61.0042 121.841 60.9016 121.799 60.7785C121.758 60.6758 121.696 60.5732 121.613 60.4911C121.53 60.409 121.448 60.3474 121.324 60.3063C121.22 60.2653 121.096 60.2448 120.972 60.2448C120.848 60.2448 120.724 60.2653 120.62 60.3063C120.517 60.3474 120.414 60.409 120.331 60.4911C120.248 60.5732 120.186 60.6758 120.145 60.7785C120.103 60.8811 120.083 61.0042 120.083 61.1479C120.083 61.2916 120.103 61.3942 120.145 61.5174C120.186 61.62 120.248 61.7227 120.331 61.8048C120.414 61.8869 120.496 61.9484 120.62 61.9895C120.724 62.0306 120.848 62.0511 120.972 62.0511Z" fill="white"/>
</g>
<mask id="mask19_1_1940" style="mask-type:luminance" maskUnits="userSpaceOnUse" x="-60" y="-30" width="332" height="247">
<path d="M271.309 -29.5579H-59.5557V216.758H271.309V-29.5579Z" fill="white"/>
</mask>
<g mask="url(#mask19_1_1940)">
<path d="M125.501 62.6053C125.087 62.6053 124.777 62.5026 124.55 62.2768C124.322 62.051 124.198 61.7431 124.198 61.3121V59.7316H124.86V61.2916C124.86 61.5584 124.922 61.7431 125.025 61.8663C125.129 61.9895 125.294 62.051 125.48 62.051C125.687 62.051 125.832 61.9895 125.956 61.8663C126.059 61.7431 126.121 61.5584 126.121 61.2916V59.7316H126.762V61.3121C126.762 61.7226 126.638 62.051 126.411 62.2768C126.225 62.4821 125.914 62.6053 125.501 62.6053Z" fill="white"/>
</g>
<mask id="mask20_1_1940" style="mask-type:luminance" maskUnits="userSpaceOnUse" x="-60" y="-30" width="332" height="247">
<path d="M271.309 -29.5579H-59.5557V216.758H271.309V-29.5579Z" fill="white"/>
</mask>
<g mask="url(#mask20_1_1940)">
<path d="M128.665 62.5438V59.7317H129.906C130.154 59.7317 130.381 59.7727 130.568 59.8548C130.754 59.937 130.898 60.0601 131.002 60.2038C131.105 60.3475 131.147 60.5322 131.147 60.758C131.147 60.9633 131.105 61.148 131.002 61.3122C130.898 61.4559 130.754 61.5791 130.568 61.6612C130.381 61.7433 130.154 61.7843 129.906 61.7843H129.037L129.347 61.497V62.5643H128.665V62.5438ZM129.327 61.5585L129.017 61.2506H129.844C130.051 61.2506 130.195 61.2096 130.299 61.1275C130.402 61.0454 130.443 60.9222 130.443 60.758C130.443 60.5938 130.402 60.4912 130.299 60.3885C130.195 60.3064 130.051 60.2654 129.844 60.2654H129.017L129.327 59.9575V61.5585ZM130.485 62.5438L129.761 61.5175H130.464L131.188 62.5438H130.485Z" fill="white"/>
</g>
<mask id="mask21_1_1940" style="mask-type:luminance" maskUnits="userSpaceOnUse" x="-60" y="-30" width="332" height="247">
<path d="M271.309 -29.5579H-59.5557V216.758H271.309V-29.5579Z" fill="white"/>
</mask>
<g mask="url(#mask21_1_1940)">
<path d="M132.883 62.5438V59.7317H133.42L135.095 61.7638H134.847V59.7317H135.488V62.5438H134.951L133.276 60.5117H133.524V62.5438H132.883Z" fill="white"/>
</g>
<mask id="mask22_1_1940" style="mask-type:luminance" maskUnits="userSpaceOnUse" x="-60" y="-30" width="332" height="247">
<path d="M271.309 -29.5579H-59.5557V216.758H271.309V-29.5579Z" fill="white"/>
</mask>
<g mask="url(#mask22_1_1940)">
<path d="M137.02 62.5438L138.281 59.7112H138.922L140.204 62.5438H139.522L138.467 60.0396H138.736L137.681 62.5438H137.02ZM137.661 61.9485L137.826 61.4559H139.294L139.46 61.9485H137.661Z" fill="white"/>
</g>
<mask id="mask23_1_1940" style="mask-type:luminance" maskUnits="userSpaceOnUse" x="-60" y="-30" width="332" height="247">
<path d="M271.309 -29.5579H-59.5557V216.758H271.309V-29.5579Z" fill="white"/>
</mask>
<g mask="url(#mask23_1_1940)">
<path d="M141.733 62.5438V59.7317H142.271L143.47 61.7227H143.202L144.38 59.7317H144.939V62.5438H144.318L144.298 60.6759H144.422L143.47 62.2564H143.181L142.209 60.6759H142.333V62.5438H141.733Z" fill="white"/>
</g>
<mask id="mask24_1_1940" style="mask-type:luminance" maskUnits="userSpaceOnUse" x="-60" y="-30" width="332" height="247">
<path d="M271.309 -29.5579H-59.5557V216.758H271.309V-29.5579Z" fill="white"/>
</mask>
<g mask="url(#mask24_1_1940)">
<path d="M147.483 62.0306H149.034V62.5643H146.821V59.7317H148.972V60.2654H147.483V62.0306ZM147.442 60.8606H148.806V61.3738H147.442V60.8606Z" fill="white"/>
</g>
<mask id="mask25_1_1940" style="mask-type:luminance" maskUnits="userSpaceOnUse" x="-60" y="-30" width="332" height="247">
<path d="M271.309 -29.5579H-59.5557V216.758H271.309V-29.5579Z" fill="white"/>
</mask>
<g mask="url(#mask25_1_1940)">
<path d="M150.771 62.5437V59.7316H151.329L153.004 61.7637H152.735V59.7316H153.397V62.5437H152.838L151.163 60.5116H151.432V62.5437H150.771Z" fill="white"/>
</g>
<mask id="mask26_1_1940" style="mask-type:luminance" maskUnits="userSpaceOnUse" x="-60" y="-30" width="332" height="247">
<path d="M271.309 -29.5579H-59.5557V216.758H271.309V-29.5579Z" fill="white"/>
</mask>
<g mask="url(#mask26_1_1940)">
<path d="M155.879 62.5438V60.2654H154.969V59.7317H157.45V60.2654H156.54V62.5438H155.879Z" fill="white"/>
</g>
<mask id="mask27_1_1940" style="mask-type:luminance" maskUnits="userSpaceOnUse" x="-60" y="-30" width="332" height="247">
<path d="M271.309 -29.5579H-59.5557V216.758H271.309V-29.5579Z" fill="white"/>
</mask>
<g mask="url(#mask27_1_1940)">
<path d="M159.931 62.6053C159.704 62.6053 159.477 62.5848 159.27 62.5232C159.063 62.4617 158.898 62.3796 158.773 62.2769L159.001 61.7843C159.125 61.8664 159.27 61.9485 159.435 61.9896C159.601 62.0511 159.766 62.0717 159.952 62.0717C160.076 62.0717 160.18 62.0511 160.262 62.0306C160.345 62.0101 160.407 61.969 160.448 61.928C160.49 61.8869 160.51 61.8253 160.51 61.7638C160.51 61.6817 160.49 61.6201 160.428 61.579C160.366 61.538 160.283 61.4969 160.18 61.4764C160.076 61.4559 159.973 61.4148 159.849 61.3943C159.725 61.3738 159.621 61.3327 159.497 61.2917C159.373 61.2506 159.27 61.2096 159.166 61.148C159.063 61.0864 158.98 61.0043 158.939 60.9017C158.877 60.799 158.856 60.6759 158.856 60.5322C158.856 60.368 158.898 60.2243 158.98 60.0806C159.063 59.9575 159.208 59.8343 159.373 59.7522C159.559 59.6701 159.766 59.629 160.035 59.629C160.221 59.629 160.386 59.6496 160.573 59.6906C160.738 59.7317 160.903 59.7932 161.027 59.8753L160.821 60.368C160.697 60.2859 160.552 60.2448 160.428 60.2038C160.304 60.1627 160.159 60.1422 160.035 60.1422C159.911 60.1422 159.807 60.1627 159.725 60.1832C159.642 60.2038 159.58 60.2448 159.559 60.3064C159.518 60.3474 159.497 60.409 159.497 60.4706C159.497 60.5527 159.518 60.6143 159.58 60.6553C159.642 60.6964 159.725 60.7374 159.807 60.758C159.911 60.7785 160.014 60.799 160.138 60.8401C160.262 60.8606 160.366 60.9017 160.49 60.9427C160.614 60.9838 160.717 61.0248 160.821 61.0864C160.924 61.148 161.007 61.2301 161.069 61.3122C161.131 61.4148 161.152 61.538 161.152 61.6817C161.152 61.8459 161.11 61.9896 161.027 62.1127C160.945 62.2359 160.8 62.359 160.635 62.4411C160.428 62.5643 160.2 62.6053 159.931 62.6053Z" fill="white"/>
</g>
<mask id="mask28_1_1940" style="mask-type:luminance" maskUnits="userSpaceOnUse" x="-60" y="-30" width="332" height="247">
<path d="M271.309 -29.5579H-59.5557V216.758H271.309V-29.5579Z" fill="white"/>
</mask>
<g mask="url(#mask28_1_1940)">
<path d="M165.184 62.5438V59.7317H165.721L166.941 61.7227H166.652L167.851 59.7317H168.389V62.5438H167.768V60.6759H167.893L166.921 62.2564H166.631L165.659 60.6759H165.804V62.5438H165.184Z" fill="white"/>
</g>
<mask id="mask29_1_1940" style="mask-type:luminance" maskUnits="userSpaceOnUse" x="-60" y="-30" width="332" height="247">
<path d="M271.309 -29.5579H-59.5557V216.758H271.309V-29.5579Z" fill="white"/>
</mask>
<g mask="url(#mask29_1_1940)">
<path d="M170.954 62.0306H172.505V62.5643H170.292V59.7317H172.443V60.2654H170.954V62.0306ZM170.892 60.8606H172.256V61.3738H170.892V60.8606Z" fill="white"/>
</g>
<mask id="mask30_1_1940" style="mask-type:luminance" maskUnits="userSpaceOnUse" x="-60" y="-30" width="332" height="247">
<path d="M271.309 -29.5579H-59.5557V216.758H271.309V-29.5579Z" fill="white"/>
</mask>
<g mask="url(#mask30_1_1940)">
<path d="M174.903 62.0305H176.454V62.5642H174.241V59.7316H176.392V60.2653H174.903V62.0305ZM174.841 60.8605H176.206V61.3737H174.841V60.8605Z" fill="white"/>
</g>
<mask id="mask31_1_1940" style="mask-type:luminance" maskUnits="userSpaceOnUse" x="-60" y="-30" width="332" height="247">
<path d="M271.309 -29.5579H-59.5557V216.758H271.309V-29.5579Z" fill="white"/>
</mask>
<g mask="url(#mask31_1_1940)">
<path d="M178.77 62.5438V60.2654H177.86V59.7317H180.342V60.2654H179.432V62.5438H178.77Z" fill="white"/>
</g>
<mask id="mask32_1_1940" style="mask-type:luminance" maskUnits="userSpaceOnUse" x="25" y="17" width="47" height="46">
<path d="M25.7451 40.1289C25.7451 52.5268 35.8778 62.6052 48.3886 62.6052C60.8788 62.6052 71.0322 52.5473 71.0322 40.1289C71.0322 27.731 60.8994 17.6526 48.3886 17.6526C35.8778 17.6731 25.7451 27.731 25.7451 40.1289Z" fill="white"/>
</mask>
<g mask="url(#mask32_1_1940)">
<path d="M91.7731 31.2L57.3633 83.2137L4.96265 49.0579L39.3725 -2.95581L91.7731 31.2Z" fill="url(#paint0_linear_1_1940)"/>
</g>
<path d="M56.1024 36.5369C55.6682 36.5369 55.2339 36.3932 54.8617 36.1264C54.1586 35.5927 53.8898 34.669 54.1793 33.848C54.1793 33.8274 54.2 33.8069 54.2 33.7864C54.4688 33.1296 55.0478 32.6575 55.7509 32.5548C56.454 32.4317 57.1571 32.6985 57.612 33.2322C57.9842 33.6632 58.1497 34.2175 58.0876 34.7511C58.0256 35.2643 57.7774 35.7569 57.3639 36.0853C57.3432 36.1059 57.3225 36.1264 57.2812 36.1469C56.971 36.4138 56.5367 36.5369 56.1024 36.5369Z" fill="white"/>
<path d="M42.8469 30.5431C42.8469 31.241 43.4053 31.7952 44.1083 31.7952C44.8114 31.7952 45.3698 31.241 45.3698 30.5431C45.3698 29.8452 44.8114 29.291 44.1083 29.291C43.4053 29.291 42.8469 29.8658 42.8469 30.5431Z" fill="white"/>
<path d="M44.1083 33.8274C42.2885 33.8274 40.8203 32.37 40.8203 30.5637C40.8203 28.7574 42.2885 27.3 44.1083 27.3C45.928 27.3 47.3962 28.7574 47.3962 30.5637C47.4169 32.3495 45.928 33.8274 44.1083 33.8274ZM44.1083 29.8043C43.6947 29.8043 43.3432 30.1327 43.3432 30.5637C43.3432 30.9743 43.674 31.3232 44.1083 31.3232C44.5219 31.3232 44.8734 30.9948 44.8734 30.5637C44.8734 30.1327 44.5425 29.8043 44.1083 29.8043Z" fill="white"/>
<path d="M51.0979 30.0711C51.0979 30.769 51.6562 31.3232 52.3593 31.3232C53.0624 31.3232 53.6207 30.769 53.6207 30.0711C53.6207 29.3732 53.0624 28.819 52.3593 28.819C51.6562 28.819 51.0979 29.3937 51.0979 30.0711Z" fill="white"/>
<path d="M51.4292 35.5517C48.1412 35.5517 45.4736 32.9038 45.4736 29.6401C45.4736 26.3764 48.1412 23.7285 51.4292 23.7285C54.7172 23.7285 57.3847 26.3764 57.3847 29.6401C57.3847 32.9038 54.7172 35.5517 51.4292 35.5517ZM51.4292 28.3059C50.6847 28.3059 50.0644 28.9217 50.0644 29.6606C50.0644 30.3996 50.6847 31.0154 51.4292 31.0154C52.1736 31.0154 52.794 30.3996 52.794 29.6606C52.794 28.9011 52.1736 28.3059 51.4292 28.3059Z" fill="white"/>
<path d="M34.9058 48.1959C35.795 46.8001 37.2012 44.3369 40.2824 44.5627C39.8067 46.9232 40.2203 49.8175 40.5925 51.5827C43.4049 49.4069 45.5141 47.3543 47.1064 45.5685C45.2453 45.199 40.8614 43.7827 37.5527 38.6306C35.1953 39.4311 32.445 41.0527 30.3978 44.3985C30.1496 44.809 30.0049 45.2811 30.0049 45.7738V46.6975C30.0049 48.0932 31.0595 49.3043 32.445 49.4069C33.4583 49.4685 34.3888 48.9964 34.9058 48.1959Z" fill="white"/>
<path d="M40.614 53.5736C40.3866 53.5736 40.1384 53.5325 39.9109 53.4504C39.2492 53.2041 38.7736 52.6499 38.6288 51.9725C38.36 50.6794 38.1119 49.0167 38.0705 47.3336C37.6156 47.7646 37.202 48.3804 36.7677 49.0578L36.6437 49.263C35.7131 50.7204 34.0588 51.5415 32.3217 51.3978C29.9023 51.213 28.0205 49.1399 28.0205 46.6767V45.753C28.0205 44.8909 28.248 44.0699 28.7029 43.3309C30.6467 40.1699 33.5004 37.8709 36.9332 36.7009C37.8224 36.393 38.7943 36.742 39.2906 37.522C42.2063 42.0788 46.0319 43.2694 47.5415 43.5773C48.2446 43.7209 48.8236 44.2341 49.0511 44.9115C49.2785 45.5888 49.1338 46.3483 48.6582 46.882C46.7557 49.0373 44.481 51.1309 41.8754 53.1425C41.4825 53.4299 41.0483 53.5736 40.614 53.5736ZM42.165 45.7736C42.1029 46.3483 42.1029 46.9846 42.1236 47.662C42.5785 47.2515 43.0335 46.8409 43.4471 46.4304C43.0335 46.2457 42.5992 46.0404 42.165 45.7736ZM36.8298 41.073C34.9066 42.0173 33.3143 43.4746 32.1356 45.4041C32.0736 45.5067 32.0529 45.6094 32.0529 45.7325V46.6562C32.0529 47.0257 32.3217 47.3541 32.6319 47.3746C32.8801 47.3952 33.1075 47.2925 33.2316 47.0873L33.3557 46.882C34.1208 45.6709 35.5683 43.3925 38.2773 42.6946C37.7603 42.2225 37.2847 41.6888 36.8298 41.073Z" fill="white"/>
<path d="M67.6618 29.5374C67.5377 29.2705 67.5377 28.9832 67.6618 28.7163L68.7991 26.2532C69.192 25.4116 68.3235 24.5495 67.4757 24.9395L64.9942 26.0684C64.7253 26.1916 64.4358 26.1916 64.167 26.0684L61.6855 24.9395C60.8377 24.5495 59.9692 25.4116 60.3621 26.2532L61.4994 28.7163C61.6235 28.9832 61.6235 29.2705 61.4994 29.5374L60.9618 30.7279C60.3207 30.8716 59.6797 31.1384 59.3281 31.4669C58.625 32.1442 57.9633 32.76 57.9633 32.7805C57.9633 32.8011 57.9633 32.8011 57.9633 32.8216C57.7152 33.0679 57.5084 33.3553 57.3636 33.6837C57.1568 34.1148 56.8673 34.6484 56.4951 35.2232C55.9988 34.4842 55.3991 33.93 54.8408 33.54C54.7994 33.499 54.7374 33.4579 54.696 33.4169C54.6547 33.3963 54.5926 33.3553 54.5513 33.3348C53.6827 32.7805 52.9797 32.5548 52.9797 32.5548C52.1111 32.2058 51.0772 31.939 49.8365 31.8158C47.3757 31.59 43.9843 32.8832 40.4482 33.3758C40.1794 33.4169 39.9312 33.3963 39.6831 33.3142C39.0006 33.109 38.4837 32.5137 38.4423 31.7542C38.401 31.2205 38.6698 30.769 39.042 30.42C39.2074 30.2763 39.3729 30.1326 39.5797 30.0095C41.751 28.6342 48.1201 26.1916 54.5513 28.9011C54.9028 29.0448 55.2544 28.7163 55.1303 28.3674C53.6621 23.9748 49.8365 21.3063 45.0182 22.0453C40.8618 22.6816 37.6979 25.7811 36.8294 29.6195C36.7673 29.6195 36.726 29.6195 36.6639 29.64C36.0849 29.7221 35.5886 29.989 35.1957 30.3584C34.017 29.3937 31.184 27.3821 27.7719 26.9716L24.6494 30.8511C24.6494 30.8511 31.2667 30.4611 34.4306 31.549C34.3686 31.7748 34.3065 32.0005 34.3065 32.2469C32.6315 32.4521 29.5297 33.0884 27.0482 35.0179L27.6065 39.9442C27.6065 39.9442 31.701 35.3874 34.6787 33.7453C35.175 34.5869 36.1056 35.1411 37.1395 35.1205C37.5324 36.229 38.1115 37.2348 38.8352 38.0969C38.8352 38.0969 42.7022 42.5305 48.9266 43.3516C50.3741 41.4221 51.0565 40.0469 51.284 39.5542L53.2278 38.9384C50.4568 47.58 40.2 55.1337 40.2 55.1337C39.4763 55.9958 38.1321 57.1042 35.6093 58.1716C35.2991 58.3153 35.0303 58.5205 34.8442 58.8079C34.2858 59.629 33.1898 61.5174 33.1071 63.8163C33.1071 63.8163 31.8457 68.599 40.076 63.8163C44.1911 61.3737 48.8852 57.5353 50.2087 55.2774C50.2087 55.2774 51.7389 54.6616 52.6074 54.0253C52.6074 54.0253 51.3874 59.3005 51.6769 60.3269C51.9664 61.3532 53.4346 61.7021 56.9087 57.4326C60.4034 53.1426 61.7889 48.1753 61.8096 46.5948C61.8096 45.0142 59.0386 41.9353 53.6621 45.1784C53.6621 45.1784 60.1553 38.7742 63.3192 35.3463C64.0223 34.5869 64.1463 33.3142 63.8361 32.3495L64.2084 32.1853C64.4772 32.0621 64.7667 32.0621 65.0355 32.1853L67.517 33.3142C68.3648 33.7042 69.2334 32.8421 68.8405 32.0005L67.6618 29.5374ZM43.426 24.529C43.3846 24.5495 43.3432 24.57 43.3019 24.5905C43.488 24.4879 43.6741 24.4058 43.9016 24.3032C43.8809 24.3032 43.8602 24.3237 43.8395 24.3237C43.6948 24.4058 43.5707 24.4674 43.426 24.529ZM42.33 25.2063L42.3507 25.1858C42.3507 25.1858 42.33 25.1858 42.33 25.2063ZM42.7436 24.919C42.8056 24.8779 42.8676 24.8574 42.9297 24.8163C42.8469 24.8369 42.8056 24.8779 42.7436 24.919ZM46.0315 24.7342C46.1556 24.7342 46.259 24.7342 46.3831 24.7342C46.3831 24.7342 46.3831 24.7342 46.4037 24.7342C46.259 24.7342 46.1349 24.7342 46.0315 24.7342ZM47.8306 24.8984C47.8719 24.8984 47.8719 24.8984 47.8926 24.919C47.8719 24.919 47.8306 24.8984 47.8099 24.8984C47.8099 24.8984 47.8099 24.8984 47.8306 24.8984ZM48.451 25.0626C48.4303 25.0626 48.3889 25.0421 48.3476 25.0421C48.3889 25.0421 48.4303 25.0421 48.451 25.0626ZM49.1127 25.2884C49.092 25.2679 49.0507 25.2679 49.03 25.2474C49.0713 25.2679 49.092 25.2679 49.1127 25.2884ZM48.9059 25.2063C48.8852 25.1858 48.8439 25.1858 48.8232 25.1653C48.8439 25.1858 48.8645 25.1858 48.9059 25.2063ZM47.8099 26.479C50.7877 26.479 53.2485 26.9511 53.2485 26.9511C53.2692 26.9511 50.7877 26.479 47.8099 26.479ZM45.1216 23.8926C45.3077 23.8516 45.4939 23.8105 45.68 23.7695C46.0729 23.7079 46.4865 23.6669 46.9207 23.6669C46.7139 23.6669 46.4865 23.6669 46.2797 23.6874C46.1969 23.6874 46.1349 23.7079 46.0522 23.7079C45.9281 23.7284 45.8247 23.7284 45.7007 23.749H45.68H45.6593C45.4939 23.7695 45.3284 23.8105 45.163 23.8516C45.163 23.8926 45.1423 23.8926 45.1216 23.8926C45.101 23.8926 45.0803 23.8926 45.0803 23.9132C44.9976 23.9337 44.9148 23.9542 44.8321 23.9748C44.8115 23.9748 44.7908 23.9748 44.7908 23.9953C44.7701 23.9953 44.7494 24.0158 44.7287 24.0158C44.5013 24.0774 44.2738 24.1595 44.067 24.2416C44.0463 24.2416 44.0463 24.2621 44.0256 24.2621C44.2531 24.1595 44.5013 24.0774 44.7908 23.9953C44.8942 23.9542 44.9976 23.9337 45.1216 23.8926ZM49.4229 25.4321C42.9503 25.3911 40.1173 28.1826 40.1173 28.1826C40.1173 28.1826 42.971 25.3911 49.4229 25.4321ZM64.5806 30.7279C63.7121 30.7279 63.0297 30.03 63.0297 29.1884C63.0297 28.3263 63.7327 27.649 64.5806 27.649C65.4491 27.649 66.1315 28.3469 66.1315 29.1884C66.1522 30.03 65.4491 30.7279 64.5806 30.7279Z" fill="white"/>
<path d="M69.7089 29.1268L70.6602 27.0947C71.1978 25.9452 70.9497 24.611 70.0605 23.7284C69.1506 22.8252 67.8271 22.5995 66.6691 23.1331L64.6219 24.0774L62.5747 23.1331C61.4167 22.5995 60.0725 22.8458 59.1833 23.7284C58.2734 24.6316 58.046 25.9452 58.5836 27.0947L59.5142 29.0858C58.9972 29.291 58.4389 29.5784 57.9839 30.0095L57.9633 30.03C57.6117 30.3584 57.2602 30.6868 57.012 30.9126C56.7639 31.1384 56.5157 31.3642 56.3296 31.631C56.2469 31.7337 56.1642 31.8158 56.1021 31.9184C56.0194 31.8568 55.916 31.7747 55.792 31.6926C55.7506 31.6721 55.7092 31.631 55.6472 31.6105H55.6265C55.1509 31.3026 54.7167 31.0768 54.3651 30.9331C55.0889 31.0358 55.8333 30.8305 56.3917 30.3174C57.0947 29.6605 57.3636 28.6547 57.0534 27.7516C55.2129 22.2095 50.3741 19.1921 44.708 20.0747C40.2827 20.7521 36.6846 23.7695 35.237 27.8952C33.5413 26.7252 30.9978 25.35 28.02 25.001C27.317 24.9189 26.6346 25.2063 26.2003 25.74L23.0778 29.6195C22.5815 30.2352 22.4987 31.0974 22.871 31.7952C23.2432 32.4931 23.9876 32.9242 24.7941 32.8831C25.2491 32.8626 25.9315 32.8216 26.7173 32.8216C26.4071 33.0268 26.1176 33.2321 25.8281 33.4579C25.2697 33.8889 24.9802 34.5663 25.0629 35.2642L25.6213 40.1905C25.704 40.9705 26.2623 41.6479 27.0275 41.8737C27.7926 42.12 28.6197 41.8942 29.1574 41.2989C30.0466 40.3137 32.4247 37.8505 34.4512 36.3316C34.8441 36.5984 35.2784 36.8037 35.754 36.9268C36.1676 37.8095 36.7052 38.6305 37.3256 39.3695C37.3463 39.39 37.3463 39.39 37.367 39.4105C37.5324 39.5952 41.3373 43.8852 47.541 45.1374C43.8188 49.9405 39.1247 53.4505 39.042 53.5121C38.9179 53.6147 38.7938 53.7174 38.6904 53.8405C38.1941 54.4358 37.1188 55.3595 34.8441 56.3242C34.1824 56.6116 33.6034 57.0837 33.2105 57.6789C32.4867 58.7258 31.2873 60.881 31.1219 63.5495C30.8944 64.7195 31.0805 66.3 32.3626 67.2647C32.983 67.7368 33.7275 67.9626 34.6167 67.9626C36.2503 67.9626 38.3596 67.1621 41.1512 65.5405C43.9636 63.8779 47.3342 61.3737 49.671 59.0747C49.6089 59.7931 49.6296 60.4295 49.733 60.8605C50.0432 61.9484 50.8497 62.7284 51.9043 62.9337C53.7654 63.3237 55.792 62.01 58.5009 58.6847C62.1197 54.2305 63.8361 48.8321 63.8568 46.5947C63.8568 45.0347 62.8228 43.4337 61.2099 42.5305C60.8376 42.3252 60.362 42.0995 59.7623 41.9558C61.5407 40.1495 63.4846 38.1789 64.8287 36.701C65.325 36.1674 65.6765 35.49 65.8626 34.751L66.6898 35.1205C67.8478 35.6542 69.192 35.4079 70.0812 34.5252C70.991 33.6221 71.2185 32.3084 70.6809 31.1589L69.7089 29.1268ZM36.4157 32.7395C36.3744 32.6779 36.333 32.6163 36.2917 32.5547C36.3123 32.4726 36.3123 32.411 36.3123 32.3289C36.3123 32.2674 36.333 32.2058 36.3537 32.1442C36.3744 32.0826 36.395 32.021 36.395 31.9389C36.4157 32.2879 36.4984 32.6368 36.6225 32.9652C36.5398 32.9037 36.4778 32.8216 36.4157 32.7395ZM59.7417 46.6358C59.7003 47.6826 58.6043 52.1163 55.2957 56.16C54.7373 56.8374 54.2617 57.371 53.8688 57.761C54.0549 56.7347 54.2824 55.5237 54.5305 54.4768C54.7167 53.6558 54.3651 52.7937 53.662 52.3421C52.9589 51.8905 52.0284 51.911 51.346 52.4242C50.8704 52.7731 49.8984 53.2247 49.4021 53.43C48.9886 53.5942 48.637 53.9021 48.4096 54.2921C47.3342 56.1189 42.9503 59.7726 39.0213 62.0921C36.9327 63.3031 35.7333 63.7342 35.0923 63.8779C35.175 62.1126 36.0435 60.6142 36.4571 59.9984C38.7111 59.0131 40.4481 57.8842 41.5648 56.6116C42.6608 55.7905 47.9546 51.6237 51.8009 46.061C51.8629 46.1842 51.9457 46.3074 52.0284 46.41C52.6694 47.2105 53.8068 47.4158 54.6753 46.8821C56.4123 45.8352 57.9219 45.5068 58.9559 45.9174C59.4935 46.1431 59.7003 46.5126 59.7417 46.6358ZM61.7889 33.971C59.8244 36.0852 56.5364 39.4105 54.3651 41.5863C54.6753 40.9089 54.9234 40.2316 55.1509 39.5337C55.3784 38.8152 55.1923 38.0352 54.6546 37.5016C54.2617 37.1116 53.7447 36.9063 53.2278 36.9063C53.021 36.9063 52.8142 36.9268 52.6281 37.0089L50.6842 37.6247C50.1259 37.7889 49.671 38.1995 49.4435 38.7331C49.3194 39 48.9059 39.8826 48.0373 41.1552C43.5086 40.1289 40.5929 37.0089 40.3861 36.8037C40.0139 36.3521 39.683 35.8595 39.4349 35.3258C39.8691 35.4079 40.2827 35.4284 40.717 35.3668C42.2058 35.1616 43.5913 34.8331 44.9562 34.5252C46.7759 34.1147 48.4716 33.7042 49.6503 33.8274C50.5602 33.9095 51.4287 34.1147 52.2352 34.4431C52.2972 34.4637 52.3799 34.4842 52.442 34.5047C52.5867 34.5663 52.9796 34.7305 53.4346 35.0179C53.4552 35.0384 53.4759 35.0384 53.4966 35.0589L53.5586 35.0795C53.6 35.1 53.6207 35.141 53.662 35.1616C54.1376 35.5105 54.5305 35.9005 54.82 36.3316C55.1923 36.8858 55.8333 37.2142 56.4951 37.2142H56.5157C57.1981 37.2142 57.8185 36.8652 58.1907 36.2905C58.563 35.7158 58.8938 35.141 59.1833 34.5252C59.2454 34.4021 59.3281 34.2995 59.3901 34.2174C59.4728 34.1352 59.5555 34.0531 59.6176 33.9505C59.8657 33.7042 60.3207 33.2731 60.6929 32.9447C60.7756 32.8831 61.0238 32.76 61.4167 32.6779C61.5407 32.6574 61.6648 32.6163 61.7889 32.5547C61.8096 32.6984 61.8302 32.8216 61.8716 32.9652C61.9957 33.3552 61.9129 33.8479 61.7889 33.971Z" fill="white"/>
<path d="M44.1911 31.4669C44.8878 31.4669 45.4525 30.9063 45.4525 30.2147C45.4525 29.5232 44.8878 28.9626 44.1911 28.9626C43.4944 28.9626 42.9297 29.5232 42.9297 30.2147C42.9297 30.9063 43.4944 31.4669 44.1911 31.4669Z" fill="#1D1238"/>
<path d="M52.4423 30.9948C53.139 30.9948 53.7038 30.4342 53.7038 29.7427C53.7038 29.0512 53.139 28.4906 52.4423 28.4906C51.7457 28.4906 51.1809 29.0512 51.1809 29.7427C51.1809 30.4342 51.7457 30.9948 52.4423 30.9948Z" fill="#1D1238"/>
<path d="M34.9888 47.847C35.878 46.4512 37.2842 43.9881 40.3654 44.2138C39.8897 46.5744 40.3033 49.4686 40.6755 51.2338C43.4879 49.0581 45.5971 47.0054 47.1894 45.2196C45.3283 44.8502 40.9444 43.4338 37.6357 38.2817C35.2783 39.0823 32.528 40.7038 30.4808 44.0496C30.2326 44.4602 30.0879 44.9323 30.0879 45.4249V46.3486C30.0879 47.7444 31.1218 48.9554 32.528 49.0581C33.5206 49.1402 34.4718 48.6475 34.9888 47.847Z" fill="#1D1238"/>
<path d="M67.7448 29.1885C67.6207 28.9217 67.6207 28.6343 67.7448 28.3675L68.8821 25.9043C69.275 25.0627 68.4065 24.2006 67.5587 24.5906L65.0772 25.7196C64.8083 25.8427 64.5188 25.8427 64.25 25.7196L61.7685 24.5906C60.9207 24.2006 60.0522 25.0627 60.4451 25.9043L61.5824 28.3675C61.7065 28.6343 61.7065 28.9217 61.5824 29.1885L61.0448 30.379C60.4037 30.5227 59.7627 30.7896 59.4111 31.118C58.708 31.7954 58.0463 32.4111 58.0463 32.4317C58.0463 32.4522 58.0463 32.4522 58.0463 32.4727C57.7982 32.719 57.5914 33.0064 57.4466 33.3348C57.2398 33.7659 56.9503 34.2996 56.5781 34.8743C56.0818 34.1353 55.4821 33.5811 54.9238 33.1911C54.8824 33.1501 54.8204 33.109 54.779 33.068C54.7377 33.0475 54.6756 33.0064 54.6343 32.9859C53.7658 32.4317 53.0627 32.2059 53.0627 32.2059C52.1941 31.8569 51.1602 31.5901 49.9195 31.4669C47.4587 31.2411 44.0673 32.5343 40.5312 33.0269C40.2624 33.068 40.0142 33.0475 39.7661 32.9654C39.0837 32.7601 38.5667 32.1648 38.5253 31.4053C38.484 30.8717 38.7528 30.4201 39.125 30.0711C39.2904 29.9275 39.4559 29.7838 39.6627 29.6606C41.834 28.2853 48.2031 25.8427 54.6343 28.5522C54.9858 28.6959 55.3374 28.3675 55.2133 28.0185C53.7451 23.6259 49.9401 20.9575 45.1012 21.6964C40.9448 22.3327 37.7809 25.4322 36.9124 29.2706C36.8503 29.2706 36.809 29.2706 36.7469 29.2911C36.1679 29.3732 35.6716 29.6401 35.2787 30.0096C34.1 29.0448 31.267 27.0332 27.855 26.6227L24.7324 30.5022C24.7324 30.5022 31.3497 30.1122 34.5136 31.2001C34.4516 31.4259 34.3895 31.6517 34.3895 31.898C32.7145 32.1032 29.6127 32.7396 27.1312 34.669L27.6895 39.5953C27.6895 39.5953 31.784 35.0385 34.7617 33.3964C35.258 34.238 36.1886 34.7922 37.2225 34.7717C37.6154 35.8801 38.1945 36.8859 38.9182 37.748C38.9182 37.748 42.7852 42.1817 49.0096 43.0027C50.4571 41.0732 51.1395 39.698 51.367 39.2054L53.3108 38.5896C50.5398 47.2311 40.283 54.7848 40.283 54.7848C39.5593 55.6469 38.2151 56.7554 35.6923 57.8227C35.3821 57.9664 35.1133 58.1717 34.9272 58.459C34.3688 59.2801 33.2729 61.1685 33.1901 63.4675C33.1901 63.4675 31.9287 68.2501 40.159 63.4675C44.2741 61.0248 48.9475 57.1864 50.2917 54.9285C50.2917 54.9285 51.8219 54.3127 52.6904 53.6764C52.6904 53.6764 51.4704 58.9517 51.7599 59.978C52.0494 61.0043 53.5176 61.3532 56.9917 57.0838C60.4864 52.7938 61.8719 47.8264 61.8926 46.2459C61.8926 44.6653 59.1216 41.5864 53.7451 44.8296C53.7451 44.8296 60.2383 38.4254 63.4022 34.9975C64.1053 34.238 64.2293 32.9653 63.9192 32.0006L64.2914 31.8364C64.5602 31.7132 64.8497 31.7132 65.1185 31.8364L67.6 32.9654C68.4478 33.3554 69.3164 32.4932 68.9235 31.6517L67.7448 29.1885ZM42.3096 24.919C42.3096 24.919 47.8309 20.3827 53.3315 26.6022C53.3315 26.6022 44.5636 24.9396 40.1796 27.8338C40.1796 27.8338 43.0127 25.0422 49.4852 25.0832C49.5059 25.0832 47.0864 23.6464 42.3096 24.919ZM64.6636 30.379C63.7951 30.379 63.1127 29.6811 63.1127 28.8396C63.1127 27.9775 63.8158 27.3001 64.6636 27.3001C65.5321 27.3001 66.2145 27.998 66.2145 28.8396C66.2145 29.7017 65.5114 30.379 64.6636 30.379Z" fill="#1D1238"/>
</g>
<defs>
<linearGradient id="paint0_linear_1_1940" x1="63.2465" y1="17.6546" x2="39.5415" y2="54.0277" gradientUnits="userSpaceOnUse">
<stop stop-color="#FC9518"/>
<stop offset="0.5056" stop-color="#F510C2"/>
<stop offset="1" stop-color="#6B1CF6"/>
</linearGradient>
<clipPath id="clip0_1_1940">
<rect width="201" height="78" fill="white"/>
</clipPath>
</defs>
</svg>
