<svg width="46" height="45" viewBox="0 0 46 45" fill="none" xmlns="http://www.w3.org/2000/svg">
<path d="M20.1911 10.4669C20.8878 10.4669 21.4525 9.90627 21.4525 9.21475C21.4525 8.52323 20.8878 7.96265 20.1911 7.96265C19.4944 7.96265 18.9297 8.52323 18.9297 9.21475C18.9297 9.90627 19.4944 10.4669 20.1911 10.4669Z" fill="#1D1238"/>
<path d="M28.4421 9.99481C29.1387 9.99481 29.7035 9.43422 29.7035 8.7427C29.7035 8.05119 29.1387 7.4906 28.4421 7.4906C27.7454 7.4906 27.1807 8.05119 27.1807 8.7427C27.1807 9.43422 27.7454 9.99481 28.4421 9.99481Z" fill="#1D1238"/>
<path d="M10.9888 26.847C11.878 25.4512 13.2842 22.9881 16.3654 23.2138C15.8897 25.5744 16.3033 28.4686 16.6755 30.2338C19.4879 28.0581 21.5971 26.0054 23.1894 24.2196C21.3283 23.8502 16.9444 22.4338 13.6357 17.2817C11.2783 18.0823 8.52801 19.7038 6.48079 23.0496C6.23264 23.4602 6.08789 23.9323 6.08789 24.4249V25.3486C6.08789 26.7444 7.12184 27.9554 8.52801 28.0581C9.52061 28.1402 10.4718 27.6475 10.9888 26.847Z" fill="#1D1238"/>
<path d="M43.7448 8.18851C43.6207 7.92166 43.6207 7.6343 43.7448 7.36745L44.8821 4.9043C45.275 4.06272 44.4065 3.20061 43.5587 3.59061L41.0772 4.71956C40.8083 4.84272 40.5188 4.84272 40.25 4.71956L37.7685 3.59061C36.9207 3.20061 36.0522 4.06272 36.4451 4.9043L37.5824 7.36745C37.7065 7.6343 37.7065 7.92166 37.5824 8.18851L37.0448 9.37903C36.4037 9.52272 35.7627 9.78956 35.4111 10.118C34.708 10.7954 34.0463 11.4111 34.0463 11.4317C34.0463 11.4522 34.0463 11.4522 34.0463 11.4727C33.7982 11.719 33.5914 12.0064 33.4466 12.3348C33.2398 12.7659 32.9503 13.2996 32.5781 13.8743C32.0818 13.1353 31.4821 12.5811 30.9238 12.1911C30.8824 12.1501 30.8204 12.109 30.779 12.068C30.7377 12.0475 30.6756 12.0064 30.6343 11.9859C29.7658 11.4317 29.0627 11.2059 29.0627 11.2059C28.1941 10.8569 27.1602 10.5901 25.9195 10.4669C23.4587 10.2411 20.0673 11.5343 16.5312 12.0269C16.2624 12.068 16.0142 12.0475 15.7661 11.9654C15.0837 11.7601 14.5667 11.1648 14.5253 10.4053C14.484 9.87167 14.7528 9.42009 15.125 9.07114C15.2904 8.92745 15.4559 8.78377 15.6627 8.66061C17.834 7.28535 24.2031 4.84272 30.6343 7.55219C30.9858 7.69588 31.3374 7.36746 31.2133 7.01851C29.7451 2.62588 25.9401 -0.0425454 21.1012 0.696402C16.9448 1.33272 13.7809 4.43219 12.9124 8.27061C12.8503 8.27061 12.809 8.27061 12.7469 8.29114C12.1679 8.37324 11.6716 8.64009 11.2787 9.00956C10.1 8.04482 7.26699 6.03324 3.85495 5.62272L0.732422 9.50219C0.732422 9.50219 7.3497 9.11219 10.5136 10.2001C10.4516 10.4259 10.3895 10.6517 10.3895 10.898C8.71452 11.1032 5.61267 11.7396 3.13119 13.669L3.68952 18.5953C3.68952 18.5953 7.78397 14.0385 10.7617 12.3964C11.258 13.238 12.1886 13.7922 13.2225 13.7717C13.6154 14.8801 14.1945 15.8859 14.9182 16.748C14.9182 16.748 18.7852 21.1817 25.0096 22.0027C26.4571 20.0732 27.1395 18.698 27.367 18.2054L29.3108 17.5896C26.5398 26.2311 16.283 33.7848 16.283 33.7848C15.5593 34.6469 14.2151 35.7554 11.6923 36.8227C11.3821 36.9664 11.1133 37.1717 10.9272 37.459C10.3688 38.2801 9.27285 40.1685 9.19014 42.4675C9.19014 42.4675 7.92872 47.2501 16.159 42.4675C20.2741 40.0248 24.9475 36.1864 26.2917 33.9285C26.2917 33.9285 27.8219 33.3127 28.6904 32.6764C28.6904 32.6764 27.4704 37.9517 27.7599 38.978C28.0494 40.0043 29.5176 40.3532 32.9917 36.0838C36.4864 31.7938 37.8719 26.8264 37.8926 25.2459C37.8926 23.6653 35.1216 20.5864 29.7451 23.8296C29.7451 23.8296 36.2383 17.4254 39.4022 13.9975C40.1053 13.238 40.2293 11.9653 39.9192 11.0006L40.2914 10.8364C40.5602 10.7132 40.8497 10.7132 41.1185 10.8364L43.6 11.9654C44.4478 12.3554 45.3164 11.4932 44.9235 10.6517L43.7448 8.18851ZM18.3096 3.91903C18.3096 3.91903 23.8309 -0.61728 29.3315 5.60219C29.3315 5.60219 20.5636 3.93956 16.1796 6.83377C16.1796 6.83377 19.0127 4.04219 25.4852 4.08324C25.5059 4.08324 23.0864 2.6464 18.3096 3.91903ZM40.6636 9.37903C39.7951 9.37903 39.1127 8.68114 39.1127 7.83956C39.1127 6.97745 39.8158 6.30009 40.6636 6.30009C41.5321 6.30009 42.2145 6.99798 42.2145 7.83956C42.2145 8.70166 41.5114 9.37903 40.6636 9.37903Z" fill="#1D1238"/>
</svg>
