<svg width="16" height="10" viewBox="0 0 16 10" fill="none" xmlns="http://www.w3.org/2000/svg">
<path d="M1.22168 9.45833C1.00918 9.45833 0.831182 9.39033 0.687682 9.25433C0.544182 9.11833 0.472182 8.95022 0.471682 8.75C0.471182 8.54978 0.543182 8.38167 0.687682 8.24567C0.832182 8.10967 1.01018 8.04167 1.22168 8.04167H7.22168C7.43418 8.04167 7.61243 8.10967 7.75643 8.24567C7.90043 8.38167 7.97218 8.54978 7.97168 8.75C7.97118 8.95022 7.89918 9.11857 7.75568 9.25504C7.61218 9.39151 7.43418 9.45928 7.22168 9.45833H1.22168ZM1.22168 5.91667C1.00918 5.91667 0.831182 5.84867 0.687682 5.71267C0.544182 5.57667 0.472182 5.40856 0.471682 5.20833C0.471182 5.00811 0.543182 4.84 0.687682 4.704C0.832182 4.568 1.01018 4.5 1.22168 4.5H3.47168C3.68418 4.5 3.86243 4.568 4.00643 4.704C4.15043 4.84 4.22218 5.00811 4.22168 5.20833C4.22118 5.40856 4.14918 5.5769 4.00568 5.71338C3.86218 5.84985 3.68418 5.91761 3.47168 5.91667H1.22168ZM1.22168 2.375C1.00918 2.375 0.831182 2.307 0.687682 2.171C0.544182 2.035 0.472182 1.86689 0.471682 1.66667C0.471182 1.46644 0.543182 1.29833 0.687682 1.16233C0.832182 1.02633 1.01018 0.958333 1.22168 0.958333H3.47168C3.68418 0.958333 3.86243 1.02633 4.00643 1.16233C4.15043 1.29833 4.22218 1.46644 4.22168 1.66667C4.22118 1.86689 4.14918 2.03524 4.00568 2.17171C3.86218 2.30818 3.68418 2.37594 3.47168 2.375H1.22168ZM9.47168 7.33333C8.43418 7.33333 7.54993 6.9879 6.81893 6.29704C6.08793 5.60618 5.72218 4.77106 5.72168 3.79167C5.72118 2.81228 6.08693 1.97715 6.81893 1.28629C7.55093 0.59543 8.43518 0.25 9.47168 0.25C10.5082 0.25 11.3927 0.59543 12.1252 1.28629C12.8577 1.97715 13.2232 2.81228 13.2217 3.79167C13.2217 4.13403 13.1684 4.47356 13.0619 4.81025C12.9554 5.14694 12.7962 5.45672 12.5842 5.73958L14.9467 7.97083C15.0842 8.10069 15.1529 8.26597 15.1529 8.46667C15.1529 8.66736 15.0842 8.83264 14.9467 8.9625C14.8092 9.09236 14.6342 9.15729 14.4217 9.15729C14.2092 9.15729 14.0342 9.09236 13.8967 8.9625L11.5342 6.73125C11.2342 6.93194 10.9062 7.08258 10.5502 7.18317C10.1942 7.28375 9.83468 7.33381 9.47168 7.33333ZM9.47168 5.91667C10.0967 5.91667 10.6279 5.71007 11.0654 5.29687C11.5029 4.88368 11.7217 4.38194 11.7217 3.79167C11.7217 3.20139 11.5029 2.69965 11.0654 2.28646C10.6279 1.87326 10.0967 1.66667 9.47168 1.66667C8.84668 1.66667 8.31543 1.87326 7.87793 2.28646C7.44043 2.69965 7.22168 3.20139 7.22168 3.79167C7.22168 4.38194 7.44043 4.88368 7.87793 5.29687C8.31543 5.71007 8.84668 5.91667 9.47168 5.91667Z" fill="white" fill-opacity="0.41"/>
</svg>
