<svg width="19" height="20" viewBox="0 0 19 20" fill="none" xmlns="http://www.w3.org/2000/svg">
<path d="M16.1179 10.688C15.9997 11.9832 15.5195 13.2175 14.7336 14.2465C13.9477 15.2755 12.8885 16.0566 11.68 16.4985C10.4716 16.9403 9.16377 17.0247 7.90968 16.7416C6.65559 16.4585 5.50708 15.8198 4.59853 14.9001C3.68997 13.9803 3.05896 12.8177 2.77933 11.5482C2.4997 10.2787 2.58301 8.95485 3.01952 7.73154C3.45603 6.50822 4.22767 5.43604 5.24417 4.64047C6.26067 3.84489 7.47997 3.35882 8.7594 3.23914C8.01033 4.26499 7.64988 5.52893 7.74359 6.80108C7.83731 8.07323 8.37897 9.26907 9.27006 10.1711C10.1612 11.0732 11.3425 11.6215 12.5992 11.7163C13.8559 11.8112 15.1045 11.4463 16.1179 10.688Z" stroke="black" stroke-width="0.8" stroke-linecap="round" stroke-linejoin="round"/>
</svg>
