<svg width="11" height="11" viewBox="0 0 11 11" fill="none" xmlns="http://www.w3.org/2000/svg">
<path d="M4.09668 1.22339C3.93092 1.22339 3.77195 1.28775 3.65474 1.40233C3.53753 1.5169 3.47168 1.6723 3.47168 1.83433C3.47168 1.99636 3.53753 2.15176 3.65474 2.26633C3.77195 2.38091 3.93092 2.44528 4.09668 2.44528C4.26244 2.44528 4.42141 2.38091 4.53862 2.26633C4.65583 2.15176 4.72168 1.99636 4.72168 1.83433C4.72168 1.6723 4.65583 1.5169 4.53862 1.40233C4.42141 1.28775 4.26244 1.22339 4.09668 1.22339ZM2.32793 1.22339C2.45706 0.865658 2.69652 0.555889 3.0133 0.336777C3.33009 0.117665 3.70861 0 4.09668 0C4.48475 0 4.86327 0.117665 5.18005 0.336777C5.49684 0.555889 5.7363 0.865658 5.86543 1.22339H10.3467C10.5124 1.22339 10.6714 1.28775 10.7886 1.40233C10.9058 1.5169 10.9717 1.6723 10.9717 1.83433C10.9717 1.99636 10.9058 2.15176 10.7886 2.26633C10.6714 2.38091 10.5124 2.44528 10.3467 2.44528H5.86543C5.7363 2.803 5.49684 3.11277 5.18005 3.33189C4.86327 3.551 4.48475 3.66866 4.09668 3.66866C3.70861 3.66866 3.33009 3.551 3.0133 3.33189C2.69652 3.11277 2.45706 2.803 2.32793 2.44528H1.59668C1.43092 2.44528 1.27195 2.38091 1.15474 2.26633C1.03753 2.15176 0.97168 1.99636 0.97168 1.83433C0.97168 1.6723 1.03753 1.5169 1.15474 1.40233C1.27195 1.28775 1.43092 1.22339 1.59668 1.22339H2.32793ZM7.84668 4.88906C7.68092 4.88906 7.52195 4.95342 7.40474 5.068C7.28753 5.18257 7.22168 5.33797 7.22168 5.5C7.22168 5.66203 7.28753 5.81743 7.40474 5.932C7.52195 6.04658 7.68092 6.11094 7.84668 6.11094C8.01244 6.11094 8.17141 6.04658 8.28862 5.932C8.40583 5.81743 8.47168 5.66203 8.47168 5.5C8.47168 5.33797 8.40583 5.18257 8.28862 5.068C8.17141 4.95342 8.01244 4.88906 7.84668 4.88906ZM6.07793 4.88906C6.20706 4.53133 6.44652 4.22156 6.7633 4.00245C7.08009 3.78333 7.45861 3.66567 7.84668 3.66567C8.23475 3.66567 8.61327 3.78333 8.93005 4.00245C9.24684 4.22156 9.4863 4.53133 9.61543 4.88906H10.3467C10.5124 4.88906 10.6714 4.95342 10.7886 5.068C10.9058 5.18257 10.9717 5.33797 10.9717 5.5C10.9717 5.66203 10.9058 5.81743 10.7886 5.932C10.6714 6.04658 10.5124 6.11094 10.3467 6.11094H9.61543C9.4863 6.46867 9.24684 6.77844 8.93005 6.99755C8.61327 7.21667 8.23475 7.33433 7.84668 7.33433C7.45861 7.33433 7.08009 7.21667 6.7633 6.99755C6.44652 6.77844 6.20706 6.46867 6.07793 6.11094H1.59668C1.43092 6.11094 1.27195 6.04658 1.15474 5.932C1.03753 5.81743 0.97168 5.66203 0.97168 5.5C0.97168 5.33797 1.03753 5.18257 1.15474 5.068C1.27195 4.95342 1.43092 4.88906 1.59668 4.88906H6.07793ZM4.09668 8.55472C3.93092 8.55472 3.77195 8.61909 3.65474 8.73366C3.53753 8.84824 3.47168 9.00364 3.47168 9.16567C3.47168 9.3277 3.53753 9.4831 3.65474 9.59767C3.77195 9.71225 3.93092 9.77661 4.09668 9.77661C4.26244 9.77661 4.42141 9.71225 4.53862 9.59767C4.65583 9.4831 4.72168 9.3277 4.72168 9.16567C4.72168 9.00364 4.65583 8.84824 4.53862 8.73366C4.42141 8.61909 4.26244 8.55472 4.09668 8.55472ZM2.32793 8.55472C2.45706 8.197 2.69652 7.88723 3.0133 7.66811C3.33009 7.449 3.70861 7.33134 4.09668 7.33134C4.48475 7.33134 4.86327 7.449 5.18005 7.66811C5.49684 7.88723 5.7363 8.197 5.86543 8.55472H10.3467C10.5124 8.55472 10.6714 8.61909 10.7886 8.73366C10.9058 8.84824 10.9717 9.00364 10.9717 9.16567C10.9717 9.3277 10.9058 9.4831 10.7886 9.59767C10.6714 9.71225 10.5124 9.77661 10.3467 9.77661H5.86543C5.7363 10.1343 5.49684 10.4441 5.18005 10.6632C4.86327 10.8823 4.48475 11 4.09668 11C3.70861 11 3.33009 10.8823 3.0133 10.6632C2.69652 10.4441 2.45706 10.1343 2.32793 9.77661H1.59668C1.43092 9.77661 1.27195 9.71225 1.15474 9.59767C1.03753 9.4831 0.97168 9.3277 0.97168 9.16567C0.97168 9.00364 1.03753 8.84824 1.15474 8.73366C1.27195 8.61909 1.43092 8.55472 1.59668 8.55472H2.32793Z" fill="white" fill-opacity="0.41"/>
</svg>
