<svg width="12" height="15" viewBox="0 0 12 15" fill="none" xmlns="http://www.w3.org/2000/svg">
<path d="M1.33333 11H10.6667V6.35398C10.6667 3.76531 8.57733 1.66665 6 1.66665C3.42267 1.66665 1.33333 3.76531 1.33333 6.35398V11ZM6 0.333313C9.31333 0.333313 12 3.02865 12 6.35398V12.3333H0V6.35398C0 3.02865 2.68667 0.333313 6 0.333313ZM4.33333 13H7.66667C7.66667 13.442 7.49107 13.8659 7.17851 14.1785C6.86595 14.4911 6.44203 14.6666 6 14.6666C5.55797 14.6666 5.13405 14.4911 4.82149 14.1785C4.50893 13.8659 4.33333 13.442 4.33333 13Z" fill="white"/>
</svg>
