<svg width="15" height="15" viewBox="0 0 15 15" fill="none" xmlns="http://www.w3.org/2000/svg">
  <path d="M1.95833 13.0417H3.08646L10.825 5.30313L9.69687 4.175L1.95833 11.9135V13.0417ZM0.375 14.625V11.2604L10.825 0.830208C10.9833 0.68507 11.1583 0.572917 11.3499 0.49375C11.5415 0.414583 11.7425 0.375 11.9531 0.375C12.1637 0.375 12.3682 0.414583 12.5667 0.49375C12.7651 0.572917 12.9366 0.691667 13.0812 0.85L14.1698 1.95833C14.3281 2.10347 14.4437 2.275 14.5165 2.47292C14.5894 2.67083 14.6255 2.86875 14.625 3.06667C14.625 3.27778 14.5888 3.47913 14.5165 3.67071C14.4442 3.86229 14.3287 4.03699 14.1698 4.19479L3.73958 14.625H0.375ZM10.251 4.74896L9.69687 4.175L10.825 5.30313L10.251 4.74896Z" fill="rgba(255, 255, 255, 0.7)"/>
</svg>
