<svg width="20" height="20" viewBox="0 0 20 20" fill="none" xmlns="http://www.w3.org/2000/svg">
<path d="M14.4359 5.45206C14.4359 5.14143 14.1841 4.88956 13.8734 4.88956H8.41406C8.10344 4.88956 7.85156 5.14143 7.85156 5.45206C7.85156 5.76268 8.10344 6.01456 8.41406 6.01456H13.8734C14.1841 6.01456 14.4359 5.76268 14.4359 5.45206Z" fill="white"/>
<path d="M8.41406 7.18106C8.10344 7.18106 7.85156 7.43294 7.85156 7.74356C7.85156 8.05419 8.10344 8.30606 8.41406 8.30606H11.0591C11.3697 8.30606 11.6216 8.05419 11.6216 7.74356C11.6216 7.43294 11.3697 7.18106 11.0591 7.18106H8.41406Z" fill="white"/>
<path d="M10.625 18.1874H6.05V1.81241H14.8688C15.6238 1.81241 16.2375 2.42616 16.2375 3.18053V9.96803C16.2375 10.2787 16.4894 10.5305 16.8 10.5305C17.1106 10.5305 17.3625 10.2787 17.3625 9.96803V3.18116C17.3625 1.80616 16.2438 0.687408 14.8688 0.687408H3.69375C2.31875 0.687408 1.2 1.80616 1.2 3.18116V5.00366H1C0.689375 5.00366 0.4375 5.25553 0.4375 5.56616C0.4375 5.87678 0.689375 6.12866 1 6.12866H1.2V9.43741H1C0.689375 9.43741 0.4375 9.68928 0.4375 9.99991C0.4375 10.3105 0.689375 10.5624 1 10.5624H1.2V13.8705H1C0.689375 13.8705 0.4375 14.1224 0.4375 14.433C0.4375 14.7437 0.689375 14.9955 1 14.9955H1.2V16.818C1.2 18.193 2.31875 19.3118 3.69375 19.3118H10.625C10.9356 19.3118 11.1875 19.0599 11.1875 18.7493C11.1875 18.4387 10.9356 18.1874 10.625 18.1874ZM2.325 16.8187V14.9962H2.52313C2.83375 14.9962 3.08563 14.7443 3.08563 14.4337C3.08563 14.123 2.83375 13.8712 2.52313 13.8712H2.325V10.5624H2.52313C2.83375 10.5624 3.08563 10.3105 3.08563 9.99991C3.08563 9.68928 2.83375 9.43741 2.52313 9.43741H2.325V6.12928H2.52313C2.83375 6.12928 3.08563 5.87741 3.08563 5.56678C3.08563 5.25616 2.83375 5.00428 2.52313 5.00428H2.325V3.18116C2.325 2.42678 2.93938 1.81241 3.69375 1.81241H4.925V18.1874H3.69375C2.93938 18.1874 2.325 17.573 2.325 16.8187Z" fill="white"/>
<path d="M15.0669 11.3205C12.8638 11.3205 11.0713 13.113 11.0713 15.3168C11.0713 17.5205 12.8638 19.313 15.0669 19.313C17.27 19.313 19.0625 17.5205 19.0625 15.3168C19.0625 13.113 17.27 11.3205 15.0669 11.3205ZM15.0669 18.1874C13.4844 18.1874 12.1963 16.8993 12.1963 15.3168C12.1963 13.7343 13.4844 12.4462 15.0669 12.4462C16.65 12.4462 17.9375 13.7343 17.9375 15.3168C17.9375 16.8993 16.65 18.1874 15.0669 18.1874Z" fill="white"/>
<path d="M15.8812 14.2943L14.6487 15.2874L14.3418 14.8955C14.1506 14.6505 13.7968 14.6093 13.5524 14.8005C13.3081 14.9924 13.2649 15.3455 13.4568 15.5905L14.1156 16.4305C14.2081 16.5487 14.3449 16.6255 14.4943 16.6424C14.5156 16.6449 14.5368 16.6462 14.5581 16.6462C14.6862 16.6462 14.8106 16.6024 14.9106 16.5218L16.5868 15.1718C16.8287 14.9762 16.8668 14.6224 16.6718 14.3805C16.4774 14.138 16.1231 14.1005 15.8812 14.2943Z" fill="white"/>
</svg>
