<svg width="21" height="20" viewBox="0 0 21 20" fill="none" xmlns="http://www.w3.org/2000/svg">
<g clip-path="url(#clip0_10378_151)">
<path d="M8.01453 4.76427L8.01464 4.76416C8.14447 4.63426 8.35588 4.63426 8.4857 4.76416C8.6159 4.89445 8.6159 5.10538 8.4857 5.23566L7.825 5.89636L7.47145 6.24991L7.825 6.60347L8.4857 7.26416C8.6159 7.39445 8.6159 7.60538 8.4857 7.73566L8.48537 7.736C8.42073 7.8008 8.33671 7.83325 8.25017 7.83325C8.16364 7.83325 8.07962 7.8008 8.01498 7.73599L8.01453 7.73555L7.35373 7.07475L7.00017 6.72119L6.64662 7.07475L5.98581 7.73555L5.98537 7.736C5.92073 7.8008 5.83671 7.83325 5.75017 7.83325C5.66364 7.83325 5.57962 7.8008 5.51498 7.73599L5.51464 7.73566C5.38444 7.60538 5.38444 7.39445 5.51464 7.26416L6.17534 6.60347L6.52889 6.24991L6.17534 5.89636L5.51464 5.23566C5.51461 5.23563 5.51457 5.23559 5.51453 5.23555C5.38444 5.10526 5.38448 4.89441 5.51464 4.76416C5.64447 4.63426 5.85588 4.63426 5.9857 4.76416L5.98581 4.76427L6.64662 5.42508L7.00017 5.77863L7.35373 5.42508L8.01453 4.76427Z" stroke="white"/>
<path d="M12.083 13.7496C12.083 12.4178 13.1676 11.3329 14.4997 11.3329C15.8318 11.3329 16.9163 12.4178 16.9163 13.7496C16.9163 15.0814 15.8318 16.1663 14.4997 16.1663C13.1676 16.1663 12.083 15.0814 12.083 13.7496ZM12.7497 13.7496C12.7497 14.7148 13.5344 15.4996 14.4997 15.4996C15.4649 15.4996 16.2497 14.7148 16.2497 13.7496C16.2497 12.7844 15.4649 11.9996 14.4997 11.9996C13.5344 11.9996 12.7497 12.7844 12.7497 13.7496Z" stroke="white"/>
<path d="M9.48085 12.441C9.47621 12.4353 9.47078 12.4284 9.46499 12.4207L9.46402 12.4194L9.44879 12.399L9.4391 12.3864C9.43728 12.3841 9.43611 12.3827 9.43551 12.382C9.43035 12.3767 9.42557 12.3716 9.42116 12.3667L8.37968 11.3248C8.37662 11.322 8.37332 11.3189 8.36982 11.3155C8.36976 11.3155 8.3697 11.3154 8.36963 11.3154L8.35817 11.3066L8.34899 11.2996L8.33755 11.291L8.33429 11.2885C8.32603 11.2821 8.31869 11.2762 8.31286 11.2714C8.30694 11.2685 8.29933 11.2647 8.29117 11.2605L8.28312 11.2564L8.28316 11.2563C8.27217 11.2504 8.26223 11.2448 8.25574 11.2412L8.24642 11.236C8.23397 11.2316 8.21711 11.2268 8.1948 11.2221L8.19368 11.2219C8.1935 11.2218 8.19331 11.2218 8.19311 11.2218L8.17588 11.2207L8.14851 11.2193L8.14517 11.2191C8.14041 11.2188 8.13589 11.2185 8.13169 11.2182C8.12411 11.219 8.11425 11.2201 8.10312 11.2211C8.09253 11.2221 8.08288 11.2229 8.07587 11.2235L8.05735 11.2251C8.056 11.2252 8.05492 11.2253 8.05407 11.2254C8.05028 11.2261 8.04674 11.2267 8.04347 11.2272C6.35636 11.5807 4.62418 11.065 3.40514 9.84205C2.4463 8.88457 1.91667 7.60689 1.91667 6.24991C1.91667 4.89275 2.44643 3.61505 3.40731 2.656C4.36521 1.69626 5.64294 1.16658 7 1.16658C8.34887 1.16658 9.61936 1.68989 10.5753 2.63867C10.5808 2.64343 10.587 2.64896 10.5936 2.6552L10.5988 2.66011L10.6039 2.66515L12.8522 4.91349L12.8615 4.92279L12.8614 4.92291L12.8612 4.92283L12.8613 4.92296L12.8685 4.92962L12.8756 4.93669L15.8985 7.95975L15.8985 7.95976L15.9053 7.96662L15.9098 7.97114C15.9114 7.9727 15.9121 7.9734 15.9122 7.97355C15.9123 7.97358 15.9123 7.97359 15.9123 7.97359L15.9216 7.98241L15.9215 7.98254L18.0835 10.1446C18.0957 10.1568 18.1059 10.1682 18.1141 10.1779C19.0613 11.1335 19.5833 12.4026 19.5833 13.7499C19.5833 15.1071 19.0536 16.3848 18.0927 17.3438C17.1348 18.3036 15.8571 18.8332 14.5 18.8332C13.143 18.8332 11.8655 18.3036 10.9062 17.3431C10.906 17.343 10.9059 17.3428 10.9058 17.3427M9.48085 12.441L11.2592 16.989L10.9054 17.3423C10.9055 17.3424 10.9057 17.3426 10.9058 17.3427M9.48085 12.441L9.48239 12.4442L9.49549 12.471L9.4961 12.4723C9.501 12.482 9.50561 12.4907 9.50934 12.4976L9.51049 12.5019L9.51844 12.5321L9.51899 12.5341C9.52108 12.5417 9.52315 12.5487 9.52502 12.5548L9.48085 12.441ZM10.9058 17.3427C9.68446 16.1245 9.16745 14.3904 9.52197 12.7033M10.9058 17.3427L9.52197 12.7033M9.52197 12.7033C9.52282 12.6982 9.52384 12.6925 9.52505 12.6865L9.52549 12.6843C9.5256 12.6836 9.52596 12.6812 9.52644 12.6764C9.5273 12.6679 9.52805 12.6576 9.52921 12.6389C9.52925 12.6383 9.52929 12.6377 9.52932 12.6371L10.0284 12.6682C10.0287 12.6611 10.0296 12.654 10.0305 12.6468C10.0317 12.6376 10.0328 12.6285 10.0328 12.6195C10.0328 12.5957 10.0299 12.5719 10.027 12.5481L9.52197 12.7033ZM19.681 0.597602L19.6811 0.597492C19.811 0.467584 20.0224 0.467584 20.1522 0.597492C20.2825 0.727898 20.2822 0.938659 20.1524 1.06836L20.1523 1.06847L17.5673 3.65352L17.2874 3.93338L17.4955 4.27001C17.8525 4.84733 17.8657 5.57776 17.4942 6.17269L17.4942 6.17281L16.767 7.33817L16.5567 7.67537L16.8377 7.95641L18.5502 9.66887C18.5543 9.67374 18.559 9.67909 18.5642 9.68475L18.5708 9.69197L18.5778 9.69892C19.6567 10.7831 20.25 12.2188 20.25 13.7499C20.25 15.2875 19.6519 16.7294 18.5646 17.8153L18.5641 17.8157C17.4796 18.9018 16.0377 19.4999 14.5 19.4999C12.9624 19.4999 11.5205 18.9018 10.4351 17.8149L10.4343 17.8141C9.14949 16.5333 8.55588 14.749 8.80146 12.9699L8.83542 12.7238L8.65986 12.5481L8.19742 12.0853L8.02184 11.9095L7.77573 11.9433C7.50405 11.9806 7.24354 12.0046 6.99125 12.0046C5.48439 12.0046 4.02826 11.4111 2.93489 10.3148L2.93416 10.314C1.84811 9.22949 1.25 7.78758 1.25 6.24991C1.25 4.71231 1.84806 3.27038 2.93538 2.18456L2.93587 2.18407C4.02042 1.09802 5.46233 0.499908 7 0.499908C8.53074 0.499908 9.96549 1.09286 11.0495 2.17102L11.0558 2.17732L11.0624 2.1834C11.0705 2.1909 11.078 2.19744 11.0846 2.20291L12.8495 3.96758L13.1394 4.25747L13.4805 4.02996L14.5571 3.31181C15.1395 2.92339 15.8894 2.91937 16.4806 3.26779L16.8142 3.46438L17.0881 3.19058L19.681 0.597602ZM18.5285 9.64182L18.5294 9.64297L18.5281 9.64128L18.5285 9.64182ZM9.49991 12.4638L9.5001 12.4641L9.49991 12.4638ZM14.1271 4.40027L13.6199 4.73864L14.051 5.16975L15.6282 6.74689L16.0731 7.19184L16.406 6.65787L16.9284 5.81993C17.2111 5.36672 17.1442 4.78318 16.7671 4.4054L16.7668 4.40506L16.3711 4.00935L16.3708 4.00902C15.9858 3.62478 15.3792 3.5644 14.9264 3.86697C14.9264 3.86701 14.9263 3.86704 14.9263 3.86708L14.1271 4.40027Z" stroke="white"/>
<path d="M11.819 10.2357L11.8187 10.236C11.7541 10.3008 11.67 10.3333 11.5835 10.3333C11.497 10.3333 11.4129 10.3008 11.3483 10.236L11.3479 10.2356L10.5146 9.40234C10.5146 9.4023 10.5146 9.40226 10.5145 9.40222C10.3844 9.27193 10.3845 9.06108 10.5146 8.93084C10.6445 8.80093 10.8559 8.80093 10.9857 8.93084L10.9858 8.93095L11.819 9.76417C11.8191 9.76421 11.8191 9.76424 11.8191 9.76428C11.9492 9.89457 11.9492 10.1054 11.819 10.2357Z" stroke="#FEFEFF"/>
</g>
<defs>
<clipPath id="clip0_10378_151">
<rect width="20" height="20" fill="white" transform="translate(0.75 -9.15527e-05)"/>
</clipPath>
</defs>
</svg>
