<svg width="21" height="20" viewBox="0 0 21 20" fill="none" xmlns="http://www.w3.org/2000/svg">
<g clip-path="url(#clip0_1_1921)">
<path d="M6.92922 5.0008L6.33912 4.41071C6.01401 4.08539 5.48585 4.08539 5.16074 4.41071C4.83542 4.73623 4.83542 5.26357 5.16074 5.58909L6.92922 5.0008ZM6.92922 5.0008L6.99993 5.07151L7.07064 5.0008L7.66074 4.41071L6.92922 5.0008ZM7.73145 4.48142L7.73147 4.48139C8.01753 4.19516 8.48233 4.19516 8.76839 4.48139C9.05468 4.76787 9.05468 5.23193 8.76839 5.5184L8.1076 6.17919L8.03689 6.2499L8.1076 6.32061L8.76839 6.98139C8.7684 6.9814 8.7684 6.98141 8.76841 6.98142C9.05468 7.26789 9.05468 7.73194 8.76839 8.0184L8.76832 8.01847C8.62535 8.1618 8.43797 8.23323 8.24993 8.23323C8.06189 8.23323 7.87451 8.1618 7.73154 8.01847L7.73145 8.01838L7.07064 7.35757L6.99993 7.28686L6.92922 7.35757L6.26841 8.01838L6.26832 8.01847C6.12535 8.1618 5.93797 8.23323 5.74993 8.23323C5.56189 8.23323 5.37451 8.1618 5.23154 8.01847L5.23147 8.0184C4.94518 7.73194 4.94517 7.26789 5.23145 6.98142C5.23145 6.98141 5.23146 6.9814 5.23147 6.98139L5.89225 6.32061L5.96296 6.2499L5.89225 6.17919L5.23147 5.5184C4.94517 5.23193 4.94517 4.76787 5.23147 4.48139C5.51753 4.19516 5.98233 4.19516 6.26839 4.48139L6.26841 4.48142L6.92922 5.14222L6.99993 5.21293L7.07064 5.14222L7.73145 4.48142Z" fill="white" stroke="#1F2040" stroke-width="0.2"/>
<path d="M11.683 13.7496C11.683 12.1969 12.9466 10.9329 14.4997 10.9329C16.0527 10.9329 17.3163 12.1969 17.3163 13.7496C17.3163 15.3022 16.0527 16.5663 14.4997 16.5663C12.9466 16.5663 11.683 15.3022 11.683 13.7496ZM13.1497 13.7496C13.1497 14.4939 13.7554 15.0996 14.4997 15.0996C15.244 15.0996 15.8497 14.4939 15.8497 13.7496C15.8497 13.0053 15.244 12.3996 14.4997 12.3996C13.7554 12.3996 13.1497 13.0053 13.1497 13.7496Z" fill="white" stroke="#1F2040" stroke-width="0.2"/>
<path d="M8.71631 10.9549C8.69643 10.9354 8.67421 10.9186 8.65188 10.9018C8.64792 10.8988 8.64396 10.8959 8.64001 10.8929C8.63348 10.8878 8.62716 10.8825 8.62086 10.8772C8.6099 10.8679 8.599 10.8588 8.58712 10.8511C8.57216 10.8415 8.55611 10.8337 8.54008 10.8259C8.53321 10.8226 8.52634 10.8192 8.51957 10.8157C8.51231 10.8118 8.50511 10.8078 8.49792 10.8037C8.48035 10.7939 8.46284 10.784 8.4445 10.7765M8.71631 10.9549L8.63821 11.0174C8.64038 11.0201 8.64252 11.0225 8.64451 11.0246M8.71631 10.9549L8.64622 11.0262C8.64566 11.0257 8.64509 11.0251 8.64451 11.0246M8.71631 10.9549C8.71716 10.956 8.71823 10.9568 8.71934 10.9577C8.72037 10.9585 8.72144 10.9593 8.72241 10.9604L8.65418 11.0336M8.64451 11.0246C8.63013 11.0107 8.61423 10.9987 8.5927 10.9825C8.58853 10.9793 8.58415 10.976 8.57952 10.9725L8.57887 10.972C8.57047 10.9655 8.5616 10.958 8.55502 10.9525C8.55309 10.9508 8.55136 10.9494 8.5499 10.9482C8.54199 10.9416 8.5371 10.9379 8.53313 10.9353L8.53276 10.9351C8.52291 10.9287 8.51485 10.9248 8.50263 10.9189C8.4951 10.9153 8.48598 10.9109 8.47389 10.9047L8.47229 10.9039C8.46022 10.8974 8.45085 10.8921 8.4429 10.8876C8.42878 10.8796 8.41911 10.8741 8.40661 10.869M8.64451 11.0246C8.64705 11.0272 8.64935 11.0294 8.65119 11.031C8.65225 11.032 8.65328 11.0328 8.65418 11.0336M8.40661 10.869C8.40667 10.869 8.40674 10.8691 8.40681 10.8691L8.4445 10.7765M8.40661 10.869L8.4445 10.7765M8.40661 10.869C8.36649 10.8527 8.32291 10.8403 8.27688 10.8306L8.27317 10.8298L8.27318 10.8298C8.27123 10.8293 8.26947 10.8288 8.26798 10.8283M8.4445 10.7765C8.3975 10.7574 8.34786 10.7433 8.2974 10.7327C8.29671 10.7326 8.29602 10.7323 8.2953 10.7321C8.29432 10.7317 8.29328 10.7313 8.29211 10.7311M8.26798 10.8283C8.26962 10.8286 8.27127 10.8289 8.2729 10.8292L8.29211 10.7311M8.26798 10.8283C8.24072 10.8235 8.21152 10.822 8.17433 10.8201L8.16899 10.8198L8.16833 10.8198C8.15922 10.8192 8.14978 10.8181 8.14409 10.8174C8.14312 10.8173 8.14226 10.8172 8.14153 10.8171C8.13485 10.8164 8.13258 10.8163 8.13159 10.8163C8.12559 10.8163 8.11819 10.8169 8.10667 10.8182C8.10453 10.8185 8.10209 10.8188 8.09941 10.8191C8.09011 10.8203 8.07804 10.8218 8.06658 10.8228M8.26798 10.8283C8.26634 10.8278 8.26503 10.8274 8.26413 10.8271C8.26323 10.8268 8.26186 10.8263 8.26153 10.8262C8.26141 10.8261 8.26142 10.8261 8.26163 10.8262L8.26472 10.8272C8.26659 10.8278 8.26926 10.8285 8.27253 10.8292L8.29211 10.7311M8.29211 10.7311C8.25618 10.7241 8.219 10.7222 8.18191 10.7203C8.17931 10.7202 8.17671 10.7201 8.17411 10.7199C8.1683 10.7196 8.16246 10.7189 8.15659 10.7182C8.14829 10.7172 8.13994 10.7163 8.13159 10.7163C8.1163 10.7163 8.10093 10.7182 8.08543 10.7201C8.07618 10.7213 8.06689 10.7224 8.05754 10.7232M8.06658 10.8228L10.2391 3.00955C9.37508 2.14367 8.22457 1.66658 7 1.66658C5.77543 1.66658 4.62492 2.14367 3.76086 3.00955C2.89376 3.87483 2.41667 5.02534 2.41667 6.24991C2.41667 7.47448 2.89376 8.62499 3.75883 9.48864M8.06658 10.8228C8.06627 10.8228 8.06595 10.8228 8.06564 10.8228L8.05754 10.7232M8.06658 10.8228C8.06688 10.8227 8.06718 10.8227 8.06749 10.8227L8.05754 10.7232M8.05754 10.7232C8.04869 10.7241 8.03982 10.7248 8.03096 10.7255C8.00926 10.7273 7.98757 10.7291 7.96619 10.7331M7.96619 10.7331C7.96375 10.7338 7.9609 10.7338 7.95825 10.7342M7.96619 10.7331L7.98478 10.8314C7.98522 10.8313 7.98567 10.8312 7.98612 10.8312M7.96619 10.7331L7.99044 10.8302C7.98893 10.8305 7.98748 10.8309 7.98612 10.8312M7.95825 10.7342C6.43075 11.0603 4.86255 10.5962 3.75883 9.48864M7.95825 10.7342L7.97913 10.832C7.97753 10.8323 7.97593 10.8326 7.97433 10.833M7.95825 10.7342L7.97347 10.833L7.97028 10.8334M3.75883 9.48864L3.688 9.55922C3.68803 9.55925 3.68806 9.55929 3.68809 9.55932C3.68812 9.55935 3.68815 9.55938 3.68818 9.55941L3.75883 9.48864ZM10.3063 2.93533C9.42391 2.05289 8.24941 1.56658 7 1.56658C5.74897 1.56658 4.57304 2.05416 3.69023 2.93877C3.69018 2.93882 3.69013 2.93887 3.69008 2.93892L10.3063 2.93533ZM10.3063 2.93533C10.3088 2.93718 10.3138 2.94111 10.319 2.94601L10.3211 2.94797L10.321 2.948L12.5694 5.19633L12.5712 5.19819L12.5712 5.19821C12.5776 5.20491 12.5839 5.21123 12.5899 5.21675L12.5928 5.21947L12.5928 5.21952L15.6156 8.24259L15.5449 8.3133L15.6156 8.2426C15.6244 8.25136 15.6301 8.25723 15.6367 8.26355L15.6386 8.26536L15.6386 8.26538L17.8007 10.4274L17.73 10.4982L17.8007 10.4275C17.8079 10.4347 17.8131 10.4416 17.8154 10.4448C18.6975 11.3271 19.1833 12.5011 19.1833 13.7499C19.1833 15.001 18.6957 16.177 17.8098 17.0611C16.927 17.9457 15.751 18.4332 14.5 18.4332C13.2489 18.4332 12.073 17.9456 11.1886 17.0599C10.0601 15.9345 9.58442 14.3327 9.91577 12.7745C9.91606 12.772 9.91654 12.7686 9.91728 12.7649L9.9174 12.7643C9.92371 12.7337 9.92608 12.7018 9.92855 12.662L10.0284 12.6682M10.3063 2.93533L9.72213 12.103C9.74251 12.1236 9.76025 12.1475 9.7832 12.1783L9.7848 12.1804L9.78499 12.1807C9.7925 12.1907 9.80113 12.2006 9.80528 12.2055C9.81058 12.2117 9.81266 12.2145 9.8138 12.2162C9.82392 12.2318 9.83139 12.2472 9.84168 12.2684C9.84528 12.2759 9.84923 12.284 9.85375 12.2931L9.85388 12.2934C9.85864 12.3029 9.8643 12.313 9.86828 12.3201C9.86935 12.322 9.87029 12.3236 9.87107 12.325C9.87568 12.3334 9.87793 12.338 9.8793 12.3415L9.87929 12.3415L9.87991 12.343C9.8868 12.3598 9.89099 12.3759 9.89685 12.3985C9.89906 12.407 9.9015 12.4164 9.9044 12.4271L9.90451 12.4275C9.908 12.4401 9.91264 12.4535 9.91498 12.4606C9.91789 12.4694 9.91921 12.4742 9.91989 12.4776L9.91989 12.4776C9.92083 12.4824 9.92153 12.4886 9.92222 12.4991C9.92235 12.501 9.92248 12.5032 9.92264 12.5057C9.92317 12.5145 9.92389 12.5266 9.92505 12.5375L9.92511 12.5381C9.92621 12.5479 9.92727 12.5566 9.92824 12.5645C9.93091 12.5864 9.93284 12.6022 9.93284 12.6195C9.93284 12.6206 9.93269 12.6232 9.93167 12.6314L9.93135 12.6339C9.93049 12.6407 9.92905 12.652 9.92849 12.6631L10.0284 12.6682M10.0284 12.6682C10.0287 12.6611 10.0296 12.654 10.0305 12.6468C10.0317 12.6376 10.0328 12.6285 10.0328 12.6195C10.0328 12.5957 10.0299 12.5719 10.027 12.5481C10.0261 12.5411 10.0253 12.534 10.0245 12.527L11.2592 16.989C10.1537 15.8865 9.68839 14.3173 10.0145 12.7908C10.0149 12.7886 10.0149 12.7866 10.0153 12.7845C10.0233 12.7461 10.0259 12.7074 10.0284 12.6682ZM7.97433 10.833L7.97008 10.8334C7.96998 10.8334 7.96997 10.8334 7.97028 10.8334M7.97433 10.833L7.97169 10.8333L7.97028 10.8334M7.97433 10.833L7.97028 10.8334M7.97433 10.833L7.9783 10.8325L7.97433 10.833ZM7.98612 10.8312C8.00167 10.8283 8.0154 10.8272 8.03357 10.8257L7.98612 10.8312ZM8.65418 11.0336L9.71428 12.0941M8.65418 11.0336L9.71428 12.0941M8.65418 11.0336L8.65169 11.0311L8.64835 11.0278L8.64843 11.0277C8.64958 11.0289 8.65069 11.0301 8.6517 11.0311C8.65344 11.0328 8.65492 11.0341 8.65594 11.035C8.65727 11.0361 8.65852 11.0371 8.65743 11.0362L8.65734 11.0361C8.65695 11.0358 8.65575 11.0349 8.65418 11.0336ZM9.71428 12.0941C9.71352 12.0931 9.71285 12.0923 9.71228 12.0915C9.71053 12.0892 9.70874 12.0866 9.70918 12.0872L9.70941 12.0875L9.71003 12.0884L9.71251 12.0916C9.71397 12.0934 9.71593 12.0957 9.71839 12.0982C9.71968 12.0995 9.72111 12.1009 9.72268 12.1023L9.71825 12.0983L9.71838 12.0982L9.71428 12.0941ZM14.2476 4.80068L14.3491 4.73301L15.1486 4.19961L14.2476 4.80068ZM14.2476 4.80068L14.3339 4.8869M14.2476 4.80068L14.3339 4.8869M14.3339 4.8869L15.911 6.46405L16 6.55304L16.0666 6.44625L16.589 5.60825C16.7732 5.31302 16.7298 4.93426 16.484 4.68797L16.484 4.68791L16.0882 4.29219L16.0882 4.29213M14.3339 4.8869L16.0882 4.29213M16.0882 4.29213C15.8379 4.04228 15.4425 4.00317 15.1486 4.19956L16.0882 4.29213ZM19.3982 0.31476L19.3982 0.314738C19.6843 0.0285021 20.1491 0.0285021 20.4351 0.314738C20.7214 0.601236 20.7214 1.06526 20.4352 1.35129L20.4351 1.35132L17.8501 3.93636L17.7941 3.99233L17.8358 4.05966C18.2704 4.76269 18.2879 5.65682 17.8335 6.38453L17.8335 6.38455L17.1064 7.54992L17.0643 7.61736L17.1205 7.67356L18.8476 9.40058L18.8476 9.40065L18.8483 9.40158L18.8483 9.40161L18.8485 9.40178L18.85 9.40375C18.8519 9.40623 18.8549 9.40988 18.8586 9.41392L18.8585 9.41397L18.8613 9.41676C20.0147 10.5758 20.65 12.113 20.65 13.7499C20.65 15.3937 20.0097 16.9374 18.8473 18.0983L18.8472 18.0984C17.6875 19.2596 16.1438 19.8999 14.5 19.8999C12.8562 19.8999 11.3125 19.2596 10.152 18.0976L10.1519 18.0974C8.77788 16.7276 8.14256 14.818 8.40521 12.9152L8.41201 12.866L8.37689 12.8308L7.91445 12.368L7.87933 12.3328L7.83011 12.3396C7.54807 12.3783 7.26811 12.4046 6.99125 12.4046C5.37852 12.4046 3.82037 11.7691 2.65166 10.5972L2.65151 10.5971C1.49029 9.43746 0.85 7.89371 0.85 6.24991C0.85 4.60613 1.49028 3.06237 2.65273 1.90152L2.65283 1.90142C3.81245 0.740202 5.3562 0.0999084 7 0.0999084C8.63655 0.0999084 10.1727 0.734775 11.3315 1.88742L11.3315 1.88746L11.3341 1.88989C11.3385 1.89393 11.3425 1.89712 11.3453 1.89932L11.3508 1.90341L13.1323 3.68472L13.1903 3.7427L13.2585 3.69719L14.3351 2.97902C14.3351 2.97902 14.3352 2.97902 14.3352 2.97901C15.0506 2.50192 15.9659 2.50014 16.6837 2.92318L16.7504 2.9625L16.8052 2.90774L19.3982 0.31476ZM10.0009 12.4008C9.99886 12.3934 9.99692 12.3858 9.99497 12.3783C9.98854 12.3535 9.98209 12.3286 9.97241 12.305C9.96756 12.2926 9.96109 12.2811 9.95459 12.2695C9.95074 12.2626 9.94687 12.2558 9.94332 12.2486C9.94004 12.242 9.93683 12.2354 9.93362 12.2288C9.92251 12.2058 9.91144 12.1829 9.89754 12.1616C9.8919 12.1529 9.88521 12.1451 9.87853 12.1372C9.87388 12.1318 9.86925 12.1264 9.86499 12.1207L10.0009 12.4008Z" fill="white" stroke="#1F2040" stroke-width="0.2"/>
<path d="M12.1017 10.5184L12.1017 10.5185C11.9587 10.6618 11.7713 10.7333 11.5833 10.7333C11.3952 10.7333 11.2078 10.6618 11.0649 10.5185L11.0648 10.5184L10.2315 9.68509C9.94517 9.39862 9.94517 8.93455 10.2315 8.64808C10.5175 8.36185 10.9823 8.36185 11.2684 8.64808L11.2684 8.6481L12.1017 9.48141C12.388 9.76789 12.388 10.2319 12.1017 10.5184Z" fill="white" stroke="#1F2040" stroke-width="0.2"/>
</g>
<defs>
<clipPath id="clip0_1_1921">
<rect width="20" height="20" fill="white" transform="translate(0.75 -9.15527e-05)"/>
</clipPath>
</defs>
</svg>
