<svg width="16" height="16" viewBox="0 0 16 16" fill="none" xmlns="http://www.w3.org/2000/svg">
<g clip-path="url(#clip0_1_79)">
<path d="M12.6667 0H2C1.46957 0 0.960859 0.210714 0.585786 0.585786C0.210714 0.960859 0 1.46957 0 2L0 16H16V3.33333L12.6667 0ZM4.66667 1.33333H11.3333V4H4.66667V1.33333ZM14.6667 14.6667H1.33333V2C1.33333 1.82319 1.40357 1.65362 1.5286 1.5286C1.65362 1.40357 1.82319 1.33333 2 1.33333H3.33333V5.33333H12.6667V1.88533L14.6667 3.88533V14.6667Z" fill="white"/>
<path d="M8.00016 6.66666C7.47275 6.66666 6.95718 6.82306 6.51864 7.11608C6.08011 7.4091 5.73832 7.82557 5.53649 8.31284C5.33465 8.80011 5.28184 9.33629 5.38474 9.85357C5.48763 10.3709 5.74161 10.846 6.11455 11.2189C6.48749 11.5919 6.96264 11.8459 7.47992 11.9488C7.99721 12.0517 8.53338 11.9988 9.02065 11.797C9.50792 11.5952 9.9244 11.2534 10.2174 10.8149C10.5104 10.3763 10.6668 9.86075 10.6668 9.33333C10.6668 8.62609 10.3859 7.94781 9.88578 7.44771C9.38569 6.94762 8.70741 6.66666 8.00016 6.66666ZM8.00016 10.6667C7.73646 10.6667 7.47867 10.5885 7.2594 10.442C7.04014 10.2954 6.86924 10.0872 6.76832 9.84358C6.66741 9.59994 6.641 9.33185 6.69245 9.07321C6.7439 8.81457 6.87089 8.57699 7.05736 8.39052C7.24383 8.20405 7.4814 8.07706 7.74004 8.02562C7.99869 7.97417 8.26677 8.00057 8.51041 8.10149C8.75404 8.20241 8.96228 8.37331 9.10879 8.59257C9.2553 8.81184 9.3335 9.06962 9.3335 9.33333C9.3335 9.68695 9.19302 10.0261 8.94297 10.2761C8.69292 10.5262 8.35379 10.6667 8.00016 10.6667Z" fill="white"/>
</g>
<defs>
<clipPath id="clip0_1_79">
<rect width="16" height="16" fill="white"/>
</clipPath>
</defs>
</svg>
