<svg width="8" height="5" viewBox="0 0 8 5" fill="none" xmlns="http://www.w3.org/2000/svg">
<path fill-rule="evenodd" clip-rule="evenodd" d="M0.788498 0.455594C0.866635 0.377477 0.972596 0.333594 1.08308 0.333594C1.19357 0.333594 1.29953 0.377477 1.37766 0.455594L3.99975 3.07781L6.62183 0.455594C6.66027 0.415796 6.70624 0.384052 6.75708 0.362214C6.80792 0.340376 6.86259 0.328881 6.91791 0.3284C6.97324 0.327919 7.02811 0.338462 7.07931 0.359414C7.13052 0.380365 7.17704 0.411306 7.21616 0.450429C7.25528 0.489553 7.28622 0.536077 7.30717 0.587287C7.32812 0.638496 7.33867 0.693365 7.33819 0.748692C7.33771 0.80402 7.32621 0.858698 7.30437 0.909535C7.28254 0.960373 7.25079 1.00635 7.211 1.04479L4.29433 3.9616C4.2162 4.03972 4.11023 4.0836 3.99975 4.0836C3.88926 4.0836 3.7833 4.03972 3.70517 3.9616L0.788498 1.04479C0.710385 0.96665 0.666504 0.860683 0.666504 0.750192C0.666504 0.639702 0.710385 0.533735 0.788498 0.455594Z" fill="#989898"/>
</svg>
