<svg width="19" height="20" viewBox="0 0 19 20" fill="none" xmlns="http://www.w3.org/2000/svg">
<path d="M3.57925 2.90447C3.44758 2.96893 3.12441 3.17525 3.12441 3.63284V16.367C3.12441 16.8249 3.44768 17.0309 3.57895 17.0955L3.5798 17.0959C3.71035 17.1592 4.07155 17.2886 4.43373 17.0066L4.43375 17.0066L12.6083 10.64L12.6084 10.6399C12.88 10.4279 12.9208 10.1459 12.9201 9.99941C12.9201 9.85421 12.8802 9.57225 12.6083 9.36046L12.5161 9.47879L12.6083 9.36045L4.43375 2.99323L4.43358 2.99309C4.26562 2.86267 4.09357 2.81908 3.9439 2.81908C3.78141 2.81908 3.65021 2.86969 3.57925 2.90447ZM3.57925 2.90447L3.6452 3.0392L3.57917 2.90451C3.5792 2.9045 3.57922 2.90449 3.57925 2.90447ZM5.68907 18.6193L5.689 18.6193C5.17477 19.0204 4.56011 19.2251 3.93989 19.2251C3.51408 19.2251 3.08454 19.1284 2.68158 18.9318C1.69398 18.4489 1.08066 17.4666 1.08066 16.367V3.63283C1.08066 2.53315 1.69402 1.55092 2.68221 1.06826L2.68221 1.06826C3.66981 0.585881 4.82157 0.705615 5.68964 1.3811C5.68965 1.38111 5.68967 1.38113 5.68969 1.38114L13.8636 7.74832L13.8636 7.74834C14.563 8.29297 14.9639 9.11307 14.9639 9.99949V9.99958C14.9644 10.886 14.5635 11.7069 13.8641 12.2518L5.68907 18.6193Z" fill="white" stroke="#212344" stroke-width="0.3"/>
<path d="M18.4193 1.79688V18.2031C18.4193 18.7674 17.9618 19.225 17.3975 19.225C16.8331 19.225 16.3756 18.7674 16.3756 18.2031V1.79688C16.3756 1.23256 16.8331 0.775 17.3975 0.775C17.9618 0.775 18.4193 1.23256 18.4193 1.79688Z" fill="white" stroke="#212344" stroke-width="0.3"/>
</svg>
