<svg width="18" height="17" viewBox="0 0 18 17" fill="none" xmlns="http://www.w3.org/2000/svg">
<mask id="path-1-inside-1_1_154" fill="white">
<path d="M8.56 0L6.21 5.76L0 6.22L4.76 10.24L3.27 16.28L8.56 13M8.56 0L10.91 5.76L17.12 6.22L12.36 10.24L13.85 16.28L8.56 13"/>
</mask>
<path d="M8.56 0L6.21 5.76L0 6.22L4.76 10.24L3.27 16.28L8.56 13M8.56 0L10.91 5.76L17.12 6.22L12.36 10.24L13.85 16.28L8.56 13" fill="#070B2B"/>
<path d="M8.56 0L9.4859 -0.377756L8.56 -2.64721L7.63409 -0.377756L8.56 0ZM6.21 5.76L6.28387 6.75727L6.90183 6.71149L7.1359 6.13776L6.21 5.76ZM0 6.22L-0.0738717 5.22273L-2.51646 5.40367L-0.645222 6.98399L0 6.22ZM4.76 10.24L5.73089 10.4795L5.87961 9.87665L5.40522 9.476L4.76 10.24ZM3.27 16.28L2.29911 16.0405L1.71136 18.423L3.79696 17.1299L3.27 16.28ZM8.56 13L9.08696 12.1501L8.56 11.8234L8.03304 12.1501L8.56 13ZM10.91 5.76L9.98409 6.13776L10.2182 6.71149L10.8361 6.75727L10.91 5.76ZM17.12 6.22L17.7652 6.98399L19.6365 5.40367L17.1939 5.22273L17.12 6.22ZM12.36 10.24L11.7148 9.47601L11.2404 9.87665L11.3891 10.4795L12.36 10.24ZM13.85 16.28L13.323 17.1299L15.4086 18.423L14.8209 16.0405L13.85 16.28ZM7.63409 -0.377756L5.28409 5.38224L7.1359 6.13776L9.4859 0.377756L7.63409 -0.377756ZM6.13613 4.76273L-0.0738717 5.22273L0.0738717 7.21727L6.28387 6.75727L6.13613 4.76273ZM-0.645222 6.98399L4.11478 11.004L5.40522 9.476L0.645222 5.45601L-0.645222 6.98399ZM3.78911 10.0005L2.29911 16.0405L4.24089 16.5195L5.73089 10.4795L3.78911 10.0005ZM3.79696 17.1299L9.08696 13.8499L8.03304 12.1501L2.74304 15.4301L3.79696 17.1299ZM7.63409 0.377756L9.98409 6.13776L11.8359 5.38224L9.4859 -0.377756L7.63409 0.377756ZM10.8361 6.75727L17.0461 7.21727L17.1939 5.22273L10.9839 4.76273L10.8361 6.75727ZM16.4748 5.45601L11.7148 9.47601L13.0052 11.004L17.7652 6.98399L16.4748 5.45601ZM11.3891 10.4795L12.8791 16.5195L14.8209 16.0405L13.3309 10.0005L11.3891 10.4795ZM14.377 15.4301L9.08696 12.1501L8.03304 13.8499L13.323 17.1299L14.377 15.4301Z" fill="white" fill-opacity="0.12" mask="url(#path-1-inside-1_1_154)"/>
</svg>
