<svg width="17" height="18" viewBox="0 0 17 18" fill="none" xmlns="http://www.w3.org/2000/svg">
<g clip-path="url(#clip0_1_1516)">
<path d="M8.65696 12.3871C10.5529 12.3871 12.0898 10.8707 12.0898 9.00001C12.0898 7.12937 10.5529 5.61292 8.65696 5.61292C6.76105 5.61292 5.22412 7.12937 5.22412 9.00001C5.22412 10.8707 6.76105 12.3871 8.65696 12.3871Z" stroke="white" stroke-width="0.8" stroke-linecap="round" stroke-linejoin="round"/>
<path d="M8.65674 1.5484V2.90324" stroke="white" stroke-width="0.8" stroke-linecap="round" stroke-linejoin="round"/>
<path d="M8.65674 15.0968V16.4516" stroke="white" stroke-width="0.8" stroke-linecap="round" stroke-linejoin="round"/>
<path d="M3.31543 3.72968L4.29036 4.69161" stroke="white" stroke-width="0.8" stroke-linecap="round" stroke-linejoin="round"/>
<path d="M13.0234 13.3084L13.9984 14.2703" stroke="white" stroke-width="0.8" stroke-linecap="round" stroke-linejoin="round"/>
<path d="M1.10449 9H2.47763" stroke="white" stroke-width="0.8" stroke-linecap="round" stroke-linejoin="round"/>
<path d="M14.8359 9H16.2091" stroke="white" stroke-width="0.8" stroke-linecap="round" stroke-linejoin="round"/>
<path d="M3.31543 14.2703L4.29036 13.3084" stroke="white" stroke-width="0.8" stroke-linecap="round" stroke-linejoin="round"/>
<path d="M13.0234 4.69161L13.9984 3.72968" stroke="white" stroke-width="0.8" stroke-linecap="round" stroke-linejoin="round"/>
</g>
<defs>
<clipPath id="clip0_1_1516">
<rect width="16.4776" height="16.2581" fill="white" transform="translate(0.417969 0.870972)"/>
</clipPath>
</defs>
</svg>
