<svg width="13" height="15" viewBox="0 0 13 15" fill="none" xmlns="http://www.w3.org/2000/svg">
<path d="M10.5046 6.40436C10.5046 6.57723 10.3644 6.71742 10.1915 6.71742H5.18262V8.2827H10.1915C10.3644 8.2827 10.5046 8.42288 10.5046 8.59576V8.87719L12.1995 7.50007L10.5046 6.12292V6.40436Z" fill="#9B9B9B"/>
<path d="M0.800293 9.22185H4.557V8.59573V6.40431V5.7782H0.800293V9.22185Z" fill="#9B9B9B"/>
<path d="M10.5046 12.0394C10.5046 12.2123 10.3644 12.3525 10.1915 12.3525H5.18262V13.9177H10.1915C10.3644 13.9177 10.5046 14.0579 10.5046 14.2308V14.5122L12.1995 13.1351L10.5046 11.7579V12.0394Z" fill="#9B9B9B"/>
<path d="M0.800293 14.857H4.557C4.557 14.4438 4.557 11.9163 4.557 11.4133H0.800293V14.857Z" fill="#9B9B9B"/>
<path d="M0.800293 3.58684H4.557C4.557 3.26308 4.557 0.466948 4.557 0.143188H0.800293V3.58684Z" fill="#9B9B9B"/>
<path d="M10.5046 2.96077V3.24221L12.1995 1.86506L10.5046 0.487915V0.769351C10.5046 0.942223 10.3644 1.08241 10.1915 1.08241H5.18262V2.64769H10.1915C10.3644 2.64772 10.5046 2.78787 10.5046 2.96077Z" fill="#9B9B9B"/>
</svg>
