<svg width="15" height="15" viewBox="0 0 15 15" fill="none" xmlns="http://www.w3.org/2000/svg">
<g clip-path="url(#clip0_10043_214)">
<path d="M13.75 5.10111V5.14673C13.75 5.68423 13.75 5.95361 13.6206 6.17361C13.4912 6.39361 13.2556 6.52423 12.7856 6.78611L12.29 7.06111C12.6312 5.90611 12.7456 4.66486 12.7875 3.60361L12.7937 3.46548L12.795 3.43298C13.2019 3.57423 13.4306 3.67986 13.5731 3.87736C13.75 4.12298 13.75 4.44923 13.75 5.10111ZM1.25 5.10111V5.14673C1.25 5.68423 1.25 5.95361 1.37938 6.17361C1.50875 6.39361 1.74437 6.52423 2.21438 6.78611L2.71062 7.06111C2.36875 5.90611 2.25437 4.66486 2.2125 3.60361L2.20625 3.46548L2.20563 3.43298C1.79813 3.57423 1.56938 3.67986 1.42687 3.87736C1.25 4.12298 1.25 4.44986 1.25 5.10111Z" fill="white"/>
<path fill-rule="evenodd" clip-rule="evenodd" d="M7.50023 1.2499C8.61523 1.2499 9.53335 1.34802 10.2359 1.46677C10.9477 1.58677 11.3034 1.64677 11.6009 2.01302C11.8984 2.37927 11.8821 2.7749 11.8509 3.56615C11.7434 6.28427 11.1571 9.67865 7.96898 9.97865V12.1874H8.86273C9.00716 12.1875 9.1471 12.2376 9.25877 12.3292C9.37043 12.4208 9.44692 12.5483 9.47523 12.6899L9.59398 13.2811H11.2502C11.3745 13.2811 11.4938 13.3305 11.5817 13.4184C11.6696 13.5063 11.719 13.6256 11.719 13.7499C11.719 13.8742 11.6696 13.9934 11.5817 14.0814C11.4938 14.1693 11.3745 14.2186 11.2502 14.2186H3.75023C3.62591 14.2186 3.50668 14.1693 3.41877 14.0814C3.33086 13.9934 3.28148 13.8742 3.28148 13.7499C3.28148 13.6256 3.33086 13.5063 3.41877 13.4184C3.50668 13.3305 3.62591 13.2811 3.75023 13.2811H5.40648L5.52523 12.6899C5.55354 12.5483 5.63002 12.4208 5.74169 12.3292C5.85335 12.2376 5.99329 12.1875 6.13773 12.1874H7.03148V9.97865C3.84398 9.67865 3.25773 6.28365 3.15023 3.56615C3.11835 2.7749 3.10273 2.37865 3.40023 2.01302C3.6971 1.64677 4.05273 1.58677 4.7646 1.46677C5.66887 1.31864 6.58391 1.2461 7.50023 1.2499ZM8.09523 3.87427L8.03398 3.76427C7.79648 3.3374 7.67773 3.1249 7.50023 3.1249C7.32273 3.1249 7.20398 3.3374 6.96648 3.76427L6.90523 3.87427C6.83773 3.99552 6.80398 4.05552 6.75148 4.09552C6.69835 4.13552 6.63273 4.15052 6.50148 4.1799L6.38273 4.2074C5.92148 4.31177 5.69085 4.36365 5.63585 4.5399C5.58085 4.71615 5.73835 4.90052 6.05273 5.26802L6.13398 5.36302C6.22335 5.4674 6.26835 5.51927 6.28835 5.58427C6.30835 5.64927 6.30148 5.71865 6.28835 5.85802L6.27585 5.9849C6.22835 6.47552 6.2046 6.72115 6.34773 6.8299C6.49148 6.93865 6.70773 6.83927 7.1396 6.64052L7.25085 6.58927C7.37398 6.53302 7.43523 6.5049 7.50023 6.5049C7.56523 6.5049 7.62648 6.53302 7.7496 6.58927L7.86085 6.64052C8.29273 6.8399 8.50898 6.93865 8.65273 6.8299C8.79648 6.72115 8.7721 6.47552 8.7246 5.9849L8.7121 5.85802C8.69898 5.71865 8.6921 5.64927 8.7121 5.58427C8.7321 5.51927 8.7771 5.4674 8.86648 5.36302L8.94773 5.26802C9.2621 4.90052 9.4196 4.71677 9.3646 4.5399C9.3096 4.36365 9.07898 4.31177 8.61773 4.2074L8.49898 4.1799C8.36773 4.15052 8.3021 4.13615 8.24898 4.09552C8.19648 4.05552 8.16273 3.99552 8.09523 3.87427Z" fill="white"/>
</g>
<defs>
<clipPath id="clip0_10043_214">
<rect width="15" height="15" fill="white"/>
</clipPath>
</defs>
</svg>
