<svg width="24" height="16" viewBox="0 0 24 16" fill="none" xmlns="http://www.w3.org/2000/svg">
<path d="M19.5197 8.07067V11.3541C18.9279 11.3541 18.3361 11.3541 17.7539 11.3541V4.64404H18.3743L21.7532 7.94659V4.64404C22.3355 4.64404 22.9177 4.64404 23.5 4.64404V11.3542H22.8891L19.5197 8.07067Z" fill="white"/>
<path d="M12.0674 11.3542C12.0674 9.12247 12.0674 6.88538 12.0674 4.64404C13.0329 4.64404 14.0271 4.64404 15.0118 4.64404C18.2143 4.6536 18.2143 9.63436 15.0118 9.63436H13.7786V11.3542C13.205 11.3542 12.6314 11.3542 12.0674 11.3542ZM15.0022 6.17656C14.6007 6.167 14.1705 6.17656 13.7786 6.17656C13.7786 6.72253 13.7786 7.54627 13.7786 8.09225H15.0022C15.9391 8.09225 15.9964 6.18616 15.0022 6.17656Z" fill="white"/>
<path d="M18.7522 12.0133C18.8722 13.9209 17.5023 14.8855 15.6174 14.8855C13.9367 14.8855 11.7557 14.1863 9.47576 12.9162C5.23884 10.5567 1.97473 6.9411 1.07016 4.23474C0.655781 2.99254 0.72695 1.94148 1.27651 1.19633C2.14612 0.0169963 3.94599 -0.0433383 5.38874 0.245262C-1.13583 -1.10467 -1.3487 5.00377 6.07702 10.9224C12.2309 15.8604 19.2218 16.5395 18.7522 12.0133Z" fill="white"/>
<path d="M11.6888 4.64404H9.98719L9.13639 7.1727L8.84004 8.31253H8.81134L7.67373 4.74941C7.40609 4.74941 7.21489 4.74941 6.94722 4.74941L5.99316 7.78872C6.34987 8.1599 6.71351 8.50555 7.07099 8.82358L7.28182 8.18801H7.31048L7.69971 9.36143C8.09273 9.68477 8.46742 9.9704 8.80385 10.2142C9.06715 10.4047 9.3326 10.5873 9.59891 10.7624L11.6888 4.90265L11.6888 4.64404Z" fill="white"/>
<path d="M4.47412 9.22754L5.24302 11.3543H6.23113L6.38076 10.9032C5.70713 10.3736 5.06728 9.81167 4.47412 9.22754Z" fill="white"/>
<path d="M5.53488 7.29209L5.50384 7.1727L4.64346 4.64404H3.71533C3.92551 5.09356 4.20981 5.57539 4.56623 6.07783C4.86863 6.50419 5.19573 6.9095 5.53488 7.29209Z" fill="white"/>
<path d="M17.9804 13.5607C16.0179 16.2223 8.0928 12.9457 3.6008 7.67327C1.4834 5.18929 0.602003 2.75046 1.58153 1.42176C3.00703 -0.511174 7.8335 0.638623 12.3622 3.99097C12.4966 4.09014 12.6288 4.19055 12.7598 4.29183C8.69342 1.30531 4.4203 0.23273 3.19232 1.89814C2.48569 2.85637 2.93965 4.51335 4.22281 6.32221C5.35891 7.924 6.95398 9.39442 8.55699 10.556C13.5647 14.179 18.4884 14.706 18.3203 11.5948C18.4588 12.3742 18.3573 13.0497 17.9804 13.5607Z" fill="white"/>
</svg>
